<svg xmlns="http://www.w3.org/2000/svg" xmlns:xlink="http://www.w3.org/1999/xlink" width="500" zoomAndPan="magnify" viewBox="0 0 375 374.999991" height="500" preserveAspectRatio="xMidYMid meet" version="1.0"><defs><g/><clipPath id="38ca50ddf0"><path d="M 57.292969 170.679688 L 138.941406 170.679688 L 138.941406 219.847656 L 57.292969 219.847656 Z M 57.292969 170.679688 " clip-rule="nonzero"/></clipPath><clipPath id="8abe150582"><path d="M 79 162.402344 L 118 162.402344 L 118 173 L 79 173 Z M 79 162.402344 " clip-rule="nonzero"/></clipPath><clipPath id="41fa54b91a"><path d="M 57.292969 179.148438 L 138.941406 179.148438 L 138.941406 210.945312 L 57.292969 210.945312 Z M 57.292969 179.148438 " clip-rule="nonzero"/></clipPath><clipPath id="dfd82e3eb1"><path d="M 37.5 151.578125 L 69.75 151.578125 L 69.75 199.578125 L 37.5 199.578125 Z M 37.5 151.578125 " clip-rule="nonzero"/></clipPath><clipPath id="cf60449dc5"><path d="M 126.476562 151.578125 L 158.515625 151.578125 L 158.515625 199.578125 L 126.476562 199.578125 Z M 126.476562 151.578125 " clip-rule="nonzero"/></clipPath><clipPath id="7f7ac619c7"><path d="M 43 207 L 58 207 L 58 222 L 43 222 Z M 43 207 " clip-rule="nonzero"/></clipPath><clipPath id="0c47b2648c"><path d="M 46.554688 223.410156 L 37.738281 198.683594 L 57.519531 191.632812 L 66.335938 216.355469 Z M 46.554688 223.410156 " clip-rule="nonzero"/></clipPath><clipPath id="44bacdfe7c"><path d="M 46.554688 223.410156 L 37.738281 198.683594 L 57.519531 191.632812 L 66.335938 216.355469 Z M 46.554688 223.410156 " clip-rule="nonzero"/></clipPath><clipPath id="971b1d21d6"><path d="M 44 208 L 57 208 L 57 221 L 44 221 Z M 44 208 " clip-rule="nonzero"/></clipPath><clipPath id="d4bacab9b1"><path d="M 46.554688 223.410156 L 37.738281 198.683594 L 57.519531 191.632812 L 66.335938 216.355469 Z M 46.554688 223.410156 " clip-rule="nonzero"/></clipPath><clipPath id="6359f2d205"><path d="M 46.554688 223.410156 L 37.738281 198.683594 L 57.519531 191.632812 L 66.335938 216.355469 Z M 46.554688 223.410156 " clip-rule="nonzero"/></clipPath><clipPath id="98a4ee8ed6"><path d="M 41 196 L 54 196 L 54 208 L 41 208 Z M 41 196 " clip-rule="nonzero"/></clipPath><clipPath id="961e5985ef"><path d="M 46.554688 223.410156 L 37.738281 198.683594 L 57.519531 191.632812 L 66.335938 216.355469 Z M 46.554688 223.410156 " clip-rule="nonzero"/></clipPath><clipPath id="e49495c3c6"><path d="M 46.554688 223.410156 L 37.738281 198.683594 L 57.519531 191.632812 L 66.335938 216.355469 Z M 46.554688 223.410156 " clip-rule="nonzero"/></clipPath><clipPath id="2b24ae1727"><path d="M 42 197 L 52 197 L 52 207 L 42 207 Z M 42 197 " clip-rule="nonzero"/></clipPath><clipPath id="532883b95a"><path d="M 46.554688 223.410156 L 37.738281 198.683594 L 57.519531 191.632812 L 66.335938 216.355469 Z M 46.554688 223.410156 " clip-rule="nonzero"/></clipPath><clipPath id="be7fa29a52"><path d="M 46.554688 223.410156 L 37.738281 198.683594 L 57.519531 191.632812 L 66.335938 216.355469 Z M 46.554688 223.410156 " clip-rule="nonzero"/></clipPath><clipPath id="e27035cdd8"><path d="M 57 207 L 65 207 L 65 215 L 57 215 Z M 57 207 " clip-rule="nonzero"/></clipPath><clipPath id="e37a0f90d2"><path d="M 46.554688 223.410156 L 37.738281 198.683594 L 57.519531 191.632812 L 66.335938 216.355469 Z M 46.554688 223.410156 " clip-rule="nonzero"/></clipPath><clipPath id="1654bb5a02"><path d="M 46.554688 223.410156 L 37.738281 198.683594 L 57.519531 191.632812 L 66.335938 216.355469 Z M 46.554688 223.410156 " clip-rule="nonzero"/></clipPath><clipPath id="9c34f4308c"><path d="M 59 208 L 64 208 L 64 214 L 59 214 Z M 59 208 " clip-rule="nonzero"/></clipPath><clipPath id="91c4356c19"><path d="M 46.554688 223.410156 L 37.738281 198.683594 L 57.519531 191.632812 L 66.335938 216.355469 Z M 46.554688 223.410156 " clip-rule="nonzero"/></clipPath><clipPath id="2412fc8511"><path d="M 46.554688 223.410156 L 37.738281 198.683594 L 57.519531 191.632812 L 66.335938 216.355469 Z M 46.554688 223.410156 " clip-rule="nonzero"/></clipPath><clipPath id="c119de114f"><path d="M 53 200 L 62 200 L 62 209 L 53 209 Z M 53 200 " clip-rule="nonzero"/></clipPath><clipPath id="f43fbb54b9"><path d="M 46.554688 223.410156 L 37.738281 198.683594 L 57.519531 191.632812 L 66.335938 216.355469 Z M 46.554688 223.410156 " clip-rule="nonzero"/></clipPath><clipPath id="3b8afab172"><path d="M 46.554688 223.410156 L 37.738281 198.683594 L 57.519531 191.632812 L 66.335938 216.355469 Z M 46.554688 223.410156 " clip-rule="nonzero"/></clipPath><clipPath id="6c6e848c2f"><path d="M 55 201 L 61 201 L 61 208 L 55 208 Z M 55 201 " clip-rule="nonzero"/></clipPath><clipPath id="43ccb456dc"><path d="M 46.554688 223.410156 L 37.738281 198.683594 L 57.519531 191.632812 L 66.335938 216.355469 Z M 46.554688 223.410156 " clip-rule="nonzero"/></clipPath><clipPath id="45afdf53c1"><path d="M 46.554688 223.410156 L 37.738281 198.683594 L 57.519531 191.632812 L 66.335938 216.355469 Z M 46.554688 223.410156 " clip-rule="nonzero"/></clipPath><clipPath id="a0331e571e"><path d="M 44 208 L 57 208 L 57 221 L 44 221 Z M 44 208 " clip-rule="nonzero"/></clipPath><clipPath id="aefa6a14bc"><path d="M 46.554688 223.410156 L 37.738281 198.683594 L 57.519531 191.632812 L 66.335938 216.355469 Z M 46.554688 223.410156 " clip-rule="nonzero"/></clipPath><clipPath id="041950cbc1"><path d="M 46.554688 223.410156 L 37.738281 198.683594 L 57.519531 191.632812 L 66.335938 216.355469 Z M 46.554688 223.410156 " clip-rule="nonzero"/></clipPath><clipPath id="19a532f52b"><path d="M 42 197 L 52 197 L 52 207 L 42 207 Z M 42 197 " clip-rule="nonzero"/></clipPath><clipPath id="29bce7d0de"><path d="M 46.554688 223.410156 L 37.738281 198.683594 L 57.519531 191.632812 L 66.335938 216.355469 Z M 46.554688 223.410156 " clip-rule="nonzero"/></clipPath><clipPath id="f7d6584919"><path d="M 46.554688 223.410156 L 37.738281 198.683594 L 57.519531 191.632812 L 66.335938 216.355469 Z M 46.554688 223.410156 " clip-rule="nonzero"/></clipPath><clipPath id="43def38480"><path d="M 59 208 L 64 208 L 64 214 L 59 214 Z M 59 208 " clip-rule="nonzero"/></clipPath><clipPath id="d6821a33f3"><path d="M 46.554688 223.410156 L 37.738281 198.683594 L 57.519531 191.632812 L 66.335938 216.355469 Z M 46.554688 223.410156 " clip-rule="nonzero"/></clipPath><clipPath id="79a9c4599e"><path d="M 46.554688 223.410156 L 37.738281 198.683594 L 57.519531 191.632812 L 66.335938 216.355469 Z M 46.554688 223.410156 " clip-rule="nonzero"/></clipPath><clipPath id="1a0160cb6f"><path d="M 55 201 L 61 201 L 61 208 L 55 208 Z M 55 201 " clip-rule="nonzero"/></clipPath><clipPath id="bf1c01ccac"><path d="M 46.554688 223.410156 L 37.738281 198.683594 L 57.519531 191.632812 L 66.335938 216.355469 Z M 46.554688 223.410156 " clip-rule="nonzero"/></clipPath><clipPath id="3774754d40"><path d="M 46.554688 223.410156 L 37.738281 198.683594 L 57.519531 191.632812 L 66.335938 216.355469 Z M 46.554688 223.410156 " clip-rule="nonzero"/></clipPath><clipPath id="016282cc7a"><path d="M 138 207 L 153 207 L 153 222 L 138 222 Z M 138 207 " clip-rule="nonzero"/></clipPath><clipPath id="9be415479f"><path d="M 158.59375 198.382812 L 149.765625 223.105469 L 129.992188 216.042969 L 138.816406 191.320312 Z M 158.59375 198.382812 " clip-rule="nonzero"/></clipPath><clipPath id="37e5f7dde8"><path d="M 149.65625 223.414062 L 158.484375 198.691406 L 138.707031 191.628906 L 129.878906 216.351562 Z M 149.65625 223.414062 " clip-rule="nonzero"/></clipPath><clipPath id="0330582842"><path d="M 139 208 L 152 208 L 152 221 L 139 221 Z M 139 208 " clip-rule="nonzero"/></clipPath><clipPath id="0860fe5b95"><path d="M 158.59375 198.382812 L 149.765625 223.105469 L 129.992188 216.042969 L 138.816406 191.320312 Z M 158.59375 198.382812 " clip-rule="nonzero"/></clipPath><clipPath id="b1587bab1b"><path d="M 149.65625 223.414062 L 158.484375 198.691406 L 138.707031 191.628906 L 129.878906 216.351562 Z M 149.65625 223.414062 " clip-rule="nonzero"/></clipPath><clipPath id="f8a633e6e0"><path d="M 143 196 L 155 196 L 155 208 L 143 208 Z M 143 196 " clip-rule="nonzero"/></clipPath><clipPath id="5336686af2"><path d="M 158.59375 198.382812 L 149.765625 223.105469 L 129.992188 216.042969 L 138.816406 191.320312 Z M 158.59375 198.382812 " clip-rule="nonzero"/></clipPath><clipPath id="67890d5ebd"><path d="M 149.65625 223.414062 L 158.484375 198.691406 L 138.707031 191.628906 L 129.878906 216.351562 Z M 149.65625 223.414062 " clip-rule="nonzero"/></clipPath><clipPath id="28ba354d7f"><path d="M 144 197 L 154 197 L 154 207 L 144 207 Z M 144 197 " clip-rule="nonzero"/></clipPath><clipPath id="07d40d9b53"><path d="M 158.59375 198.382812 L 149.765625 223.105469 L 129.992188 216.042969 L 138.816406 191.320312 Z M 158.59375 198.382812 " clip-rule="nonzero"/></clipPath><clipPath id="659aa00e81"><path d="M 149.65625 223.414062 L 158.484375 198.691406 L 138.707031 191.628906 L 129.878906 216.351562 Z M 149.65625 223.414062 " clip-rule="nonzero"/></clipPath><clipPath id="e33f00ea59"><path d="M 131 207 L 139 207 L 139 215 L 131 215 Z M 131 207 " clip-rule="nonzero"/></clipPath><clipPath id="905244e074"><path d="M 158.59375 198.382812 L 149.765625 223.105469 L 129.992188 216.042969 L 138.816406 191.320312 Z M 158.59375 198.382812 " clip-rule="nonzero"/></clipPath><clipPath id="792a83c371"><path d="M 149.65625 223.414062 L 158.484375 198.691406 L 138.707031 191.628906 L 129.878906 216.351562 Z M 149.65625 223.414062 " clip-rule="nonzero"/></clipPath><clipPath id="5abee8ee5b"><path d="M 132 208 L 138 208 L 138 214 L 132 214 Z M 132 208 " clip-rule="nonzero"/></clipPath><clipPath id="59a351e63a"><path d="M 158.59375 198.382812 L 149.765625 223.105469 L 129.992188 216.042969 L 138.816406 191.320312 Z M 158.59375 198.382812 " clip-rule="nonzero"/></clipPath><clipPath id="6425de3e75"><path d="M 149.65625 223.414062 L 158.484375 198.691406 L 138.707031 191.628906 L 129.878906 216.351562 Z M 149.65625 223.414062 " clip-rule="nonzero"/></clipPath><clipPath id="089249558e"><path d="M 134 200 L 143 200 L 143 209 L 134 209 Z M 134 200 " clip-rule="nonzero"/></clipPath><clipPath id="6f133a23e1"><path d="M 158.59375 198.382812 L 149.765625 223.105469 L 129.992188 216.042969 L 138.816406 191.320312 Z M 158.59375 198.382812 " clip-rule="nonzero"/></clipPath><clipPath id="575f318222"><path d="M 149.65625 223.414062 L 158.484375 198.691406 L 138.707031 191.628906 L 129.878906 216.351562 Z M 149.65625 223.414062 " clip-rule="nonzero"/></clipPath><clipPath id="950998e562"><path d="M 135 201 L 142 201 L 142 208 L 135 208 Z M 135 201 " clip-rule="nonzero"/></clipPath><clipPath id="8651e08487"><path d="M 158.59375 198.382812 L 149.765625 223.105469 L 129.992188 216.042969 L 138.816406 191.320312 Z M 158.59375 198.382812 " clip-rule="nonzero"/></clipPath><clipPath id="49862e7bf5"><path d="M 149.65625 223.414062 L 158.484375 198.691406 L 138.707031 191.628906 L 129.878906 216.351562 Z M 149.65625 223.414062 " clip-rule="nonzero"/></clipPath><clipPath id="f57d51196e"><path d="M 139 208 L 152 208 L 152 221 L 139 221 Z M 139 208 " clip-rule="nonzero"/></clipPath><clipPath id="d73613ac60"><path d="M 158.59375 198.382812 L 149.765625 223.105469 L 129.992188 216.042969 L 138.816406 191.320312 Z M 158.59375 198.382812 " clip-rule="nonzero"/></clipPath><clipPath id="967662651d"><path d="M 149.65625 223.414062 L 158.484375 198.691406 L 138.707031 191.628906 L 129.878906 216.351562 Z M 149.65625 223.414062 " clip-rule="nonzero"/></clipPath><clipPath id="377e94ad5a"><path d="M 144 197 L 154 197 L 154 207 L 144 207 Z M 144 197 " clip-rule="nonzero"/></clipPath><clipPath id="2254086c70"><path d="M 158.59375 198.382812 L 149.765625 223.105469 L 129.992188 216.042969 L 138.816406 191.320312 Z M 158.59375 198.382812 " clip-rule="nonzero"/></clipPath><clipPath id="de57c8940c"><path d="M 149.65625 223.414062 L 158.484375 198.691406 L 138.707031 191.628906 L 129.878906 216.351562 Z M 149.65625 223.414062 " clip-rule="nonzero"/></clipPath><clipPath id="884a494c7c"><path d="M 132 208 L 138 208 L 138 214 L 132 214 Z M 132 208 " clip-rule="nonzero"/></clipPath><clipPath id="2dc658f5b6"><path d="M 158.59375 198.382812 L 149.765625 223.105469 L 129.992188 216.042969 L 138.816406 191.320312 Z M 158.59375 198.382812 " clip-rule="nonzero"/></clipPath><clipPath id="bc2d1323a3"><path d="M 149.65625 223.414062 L 158.484375 198.691406 L 138.707031 191.628906 L 129.878906 216.351562 Z M 149.65625 223.414062 " clip-rule="nonzero"/></clipPath><clipPath id="b62156f210"><path d="M 135 201 L 142 201 L 142 208 L 135 208 Z M 135 201 " clip-rule="nonzero"/></clipPath><clipPath id="6c8eeca08d"><path d="M 158.59375 198.382812 L 149.765625 223.105469 L 129.992188 216.042969 L 138.816406 191.320312 Z M 158.59375 198.382812 " clip-rule="nonzero"/></clipPath><clipPath id="d16375a4fb"><path d="M 149.65625 223.414062 L 158.484375 198.691406 L 138.707031 191.628906 L 129.878906 216.351562 Z M 149.65625 223.414062 " clip-rule="nonzero"/></clipPath></defs><g clip-path="url(#38ca50ddf0)"><path fill="#e5d3a6" d="M 61.46875 172.132812 C 59.957031 172.132812 58.726562 173.363281 58.726562 174.875 L 58.726562 215.671875 C 58.726562 217.183594 59.957031 218.414062 61.46875 218.414062 L 134.765625 218.414062 C 136.28125 218.414062 137.507812 217.183594 137.507812 215.671875 L 137.507812 174.875 C 137.507812 173.363281 136.28125 172.132812 134.765625 172.132812 Z M 134.765625 219.847656 L 61.46875 219.847656 C 59.167969 219.847656 57.292969 217.972656 57.292969 215.671875 L 57.292969 174.875 C 57.292969 172.570312 59.167969 170.699219 61.46875 170.699219 L 134.765625 170.699219 C 137.070312 170.699219 138.941406 172.570312 138.941406 174.875 L 138.941406 215.671875 C 138.941406 217.972656 137.070312 219.847656 134.765625 219.847656 " fill-opacity="1" fill-rule="nonzero"/></g><g clip-path="url(#8abe150582)"><path fill="#e5d3a6" d="M 81.339844 170.699219 L 115.445312 170.699219 L 109.542969 163.835938 L 86.769531 163.835938 Z M 117.003906 172.132812 L 79.859375 172.132812 C 79.585938 172.132812 79.335938 171.976562 79.21875 171.730469 C 79.097656 171.480469 79.128906 171.1875 79.300781 170.972656 L 85.859375 162.675781 C 85.996094 162.503906 86.203125 162.402344 86.421875 162.402344 L 109.871094 162.402344 C 110.082031 162.402344 110.28125 162.492188 110.414062 162.652344 L 117.546875 170.949219 C 117.730469 171.160156 117.773438 171.460938 117.65625 171.714844 C 117.539062 171.96875 117.285156 172.132812 117.003906 172.132812 " fill-opacity="1" fill-rule="nonzero"/></g><path fill="#e5d3a6" d="M 64.957031 170.699219 L 76.320312 170.699219 L 76.320312 168.996094 C 76.320312 168.058594 75.554688 167.292969 74.617188 167.292969 L 66.664062 167.292969 C 65.722656 167.292969 64.957031 168.058594 64.957031 168.996094 Z M 77.035156 172.132812 L 64.242188 172.132812 C 63.847656 172.132812 63.527344 171.8125 63.527344 171.414062 L 63.527344 168.996094 C 63.527344 167.265625 64.933594 165.859375 66.664062 165.859375 L 74.617188 165.859375 C 76.347656 165.859375 77.753906 167.265625 77.753906 168.996094 L 77.753906 171.414062 C 77.753906 171.8125 77.433594 172.132812 77.035156 172.132812 " fill-opacity="1" fill-rule="nonzero"/><path fill="#e5d3a6" d="M 98.117188 175.933594 C 87.453125 175.933594 78.78125 184.609375 78.78125 195.273438 C 78.78125 205.933594 87.453125 214.613281 98.117188 214.613281 C 108.78125 214.613281 117.457031 205.933594 117.457031 195.273438 C 117.457031 184.609375 108.78125 175.933594 98.117188 175.933594 Z M 98.117188 216.042969 C 86.664062 216.042969 77.347656 206.726562 77.347656 195.273438 C 77.347656 183.820312 86.664062 174.5 98.117188 174.5 C 109.570312 174.5 118.886719 183.820312 118.886719 195.273438 C 118.886719 206.726562 109.570312 216.042969 98.117188 216.042969 " fill-opacity="1" fill-rule="nonzero"/><path fill="#e5d3a6" d="M 98.117188 180.429688 C 89.933594 180.429688 83.277344 187.089844 83.277344 195.273438 C 83.277344 203.457031 89.933594 210.117188 98.117188 210.117188 C 106.300781 210.117188 112.960938 203.457031 112.960938 195.273438 C 112.960938 187.089844 106.300781 180.429688 98.117188 180.429688 Z M 98.117188 211.546875 C 89.144531 211.546875 81.84375 204.246094 81.84375 195.273438 C 81.84375 186.296875 89.144531 179 98.117188 179 C 107.089844 179 114.394531 186.296875 114.394531 195.273438 C 114.394531 204.246094 107.089844 211.546875 98.117188 211.546875 " fill-opacity="1" fill-rule="nonzero"/><g clip-path="url(#41fa54b91a)"><path fill="#e5d3a6" d="M 85.28125 180.582031 L 58.011719 180.582031 C 57.613281 180.582031 57.292969 180.261719 57.292969 179.867188 C 57.292969 179.46875 57.613281 179.148438 58.011719 179.148438 L 85.28125 179.148438 C 85.675781 179.148438 85.996094 179.46875 85.996094 179.867188 C 85.996094 180.261719 85.675781 180.582031 85.28125 180.582031 Z M 138.226562 180.582031 L 110.957031 180.582031 C 110.558594 180.582031 110.242188 180.261719 110.242188 179.867188 C 110.242188 179.46875 110.558594 179.148438 110.957031 179.148438 L 138.226562 179.148438 C 138.621094 179.148438 138.941406 179.46875 138.941406 179.867188 C 138.941406 180.261719 138.621094 180.582031 138.226562 180.582031 Z M 84.636719 210.835938 L 58.011719 210.835938 C 57.613281 210.835938 57.292969 210.515625 57.292969 210.121094 C 57.292969 209.726562 57.613281 209.402344 58.011719 209.402344 L 84.636719 209.402344 C 85.03125 209.402344 85.351562 209.726562 85.351562 210.121094 C 85.351562 210.515625 85.03125 210.835938 84.636719 210.835938 Z M 138.226562 210.835938 L 111.597656 210.835938 C 111.203125 210.835938 110.882812 210.515625 110.882812 210.121094 C 110.882812 209.726562 111.203125 209.402344 111.597656 209.402344 L 138.226562 209.402344 C 138.621094 209.402344 138.941406 209.726562 138.941406 210.121094 C 138.941406 210.515625 138.621094 210.835938 138.226562 210.835938 " fill-opacity="1" fill-rule="nonzero"/></g><path fill="#e5d3a6" d="M 121.707031 180.582031 C 121.308594 180.582031 120.992188 180.261719 120.992188 179.867188 L 120.992188 171.414062 C 120.992188 171.019531 121.308594 170.699219 121.707031 170.699219 C 122.101562 170.699219 122.425781 171.019531 122.425781 171.414062 L 122.425781 179.867188 C 122.425781 180.261719 122.101562 180.582031 121.707031 180.582031 " fill-opacity="1" fill-rule="nonzero"/><path fill="#e5d3a6" d="M 127.371094 174.800781 C 126.910156 174.800781 126.53125 175.175781 126.53125 175.640625 C 126.53125 176.105469 126.910156 176.480469 127.371094 176.480469 L 132.558594 176.480469 C 133.019531 176.480469 133.402344 176.105469 133.402344 175.640625 C 133.402344 175.179688 133.019531 174.800781 132.558594 174.800781 Z M 132.558594 177.914062 L 127.371094 177.914062 C 126.121094 177.914062 125.101562 176.894531 125.101562 175.640625 C 125.101562 174.386719 126.121094 173.371094 127.371094 173.371094 L 132.558594 173.371094 C 133.8125 173.371094 134.828125 174.386719 134.828125 175.640625 C 134.828125 176.894531 133.8125 177.914062 132.558594 177.914062 " fill-opacity="1" fill-rule="nonzero"/><g clip-path="url(#dfd82e3eb1)"><path fill="#e5d3a6" d="M 44.082031 190.753906 C 44.082031 189.335938 44.203125 188.011719 44.039062 186.726562 C 43.941406 185.957031 43.429688 185.222656 43.039062 184.511719 C 42.925781 184.304688 42.597656 184.160156 42.339844 184.097656 C 39.894531 183.5 38.875 181.65625 38.269531 179.457031 C 38.195312 179.191406 38.207031 178.890625 38.226562 178.609375 C 38.285156 177.734375 38.949219 177.355469 39.714844 177.675781 C 40.5 178.003906 41.230469 178.367188 41.652344 179.105469 C 42.140625 179.964844 42.582031 180.863281 42.929688 181.789062 C 43.222656 182.5625 43.476562 183.328125 44.195312 183.988281 C 44.289062 183.6875 44.386719 183.445312 44.433594 183.195312 C 44.578125 182.425781 44.6875 181.648438 44.835938 180.878906 C 45.125 179.359375 44.140625 177.429688 42.6875 176.910156 C 40.902344 176.269531 40.128906 174.855469 39.625 173.191406 C 39.566406 172.992188 39.566406 172.769531 39.570312 172.554688 C 39.589844 171.316406 40.058594 170.988281 41.246094 171.273438 C 42.570312 171.589844 43.476562 172.375 43.945312 173.625 C 44.207031 174.320312 44.484375 175.0625 44.484375 175.785156 C 44.480469 176.675781 44.910156 177.238281 45.464844 177.902344 C 46.011719 176.390625 46.539062 174.964844 47.03125 173.523438 C 47.105469 173.308594 47.058594 173.035156 47.019531 172.792969 C 46.945312 172.335938 46.808594 171.890625 46.75 171.433594 C 46.617188 170.390625 46.222656 169.664062 45.179688 169.140625 C 43.597656 168.339844 43.03125 166.292969 43.796875 164.691406 C 44.117188 164.027344 44.5625 163.402344 45.050781 162.84375 C 45.625 162.191406 46.179688 162.265625 46.570312 163.027344 C 47.054688 163.980469 47.511719 164.953125 47.871094 165.957031 C 48.199219 166.875 48.320312 167.882812 47.867188 168.777344 C 47.441406 169.621094 47.664062 170.339844 47.96875 171.320312 C 48.265625 170.773438 48.472656 170.382812 48.683594 169.996094 C 49.046875 169.34375 49.332031 168.625 49.792969 168.050781 C 50.625 167.015625 50.675781 165.851562 50.609375 164.636719 C 50.589844 164.28125 50.550781 163.921875 50.558594 163.566406 C 50.566406 163.15625 50.441406 162.847656 50.152344 162.519531 C 48.523438 160.664062 48.738281 157.683594 50.585938 156.070312 C 51.335938 155.417969 51.875 155.53125 52.175781 156.480469 C 52.488281 157.464844 52.753906 158.464844 52.96875 159.472656 C 53.183594 160.460938 53.011719 161.457031 52.355469 162.203125 C 51.703125 162.941406 51.660156 163.703125 51.828125 164.683594 C 52.039062 164.488281 52.21875 164.351562 52.355469 164.179688 C 52.859375 163.578125 53.308594 162.925781 53.847656 162.359375 C 54.363281 161.816406 54.609375 161.214844 54.726562 160.476562 C 54.84375 159.714844 54.894531 159.058594 54.386719 158.378906 C 54.109375 158.011719 54.03125 157.445312 54 156.957031 C 53.863281 155.003906 55.25 152.757812 57.042969 151.9375 C 57.824219 151.578125 58.265625 151.761719 58.296875 152.589844 C 58.34375 153.792969 58.320312 155.007812 58.222656 156.210938 C 58.144531 157.167969 57.667969 157.949219 56.816406 158.492188 C 56.230469 158.871094 56.253906 158.910156 56.078125 159.828125 C 56.328125 159.660156 56.519531 159.554688 56.683594 159.417969 C 57.34375 158.871094 57.972656 158.289062 58.652344 157.769531 C 59.636719 157.019531 60.527344 156.261719 61.214844 155.144531 C 62.644531 152.824219 66.085938 151.707031 68.691406 152.472656 C 68.828125 152.511719 68.964844 152.558594 69.089844 152.621094 C 69.804688 152.964844 69.972656 153.488281 69.445312 154.066406 C 68.285156 155.328125 67.070312 156.546875 65.515625 157.328125 C 64.382812 157.894531 63.191406 157.984375 61.984375 157.554688 C 61.632812 157.429688 61.335938 157.355469 60.984375 157.59375 C 59.039062 158.925781 57.265625 160.453125 55.652344 162.214844 C 56.644531 162.445312 56.765625 162.4375 57.304688 161.773438 C 58.390625 160.441406 59.792969 159.890625 61.472656 160.089844 C 62.28125 160.1875 63.085938 160.371094 63.878906 160.570312 C 64.210938 160.652344 64.546875 160.835938 64.8125 161.054688 C 65.328125 161.484375 65.367188 162.027344 64.839844 162.417969 C 63.464844 163.441406 62.046875 164.40625 60.316406 164.746094 C 59.40625 164.925781 58.585938 164.675781 57.917969 164.105469 C 57.058594 163.375 56.164062 163.449219 55.214844 163.78125 C 54.292969 164.105469 53.496094 164.59375 52.949219 165.460938 C 52.269531 166.539062 51.53125 167.582031 50.691406 168.832031 C 51.597656 168.6875 52.238281 168.636719 52.664062 167.945312 C 53.21875 167.042969 54.15625 166.757812 55.128906 166.628906 C 56.601562 166.4375 58.046875 166.632812 59.464844 167.050781 C 59.664062 167.109375 59.867188 167.203125 60.035156 167.328125 C 60.554688 167.71875 60.628906 168.300781 60.121094 168.679688 C 58.921875 169.582031 57.691406 170.457031 56.21875 170.851562 C 55.082031 171.15625 53.984375 170.929688 53.085938 170.195312 C 52.484375 169.699219 51.964844 169.726562 51.324219 169.996094 C 50.265625 170.4375 49.417969 171.0625 48.984375 172.1875 C 48.464844 173.539062 47.882812 174.871094 47.414062 176.269531 C 48.703125 175.703125 49.96875 175.210938 50.960938 174.199219 C 52.242188 172.894531 53.8125 172.710938 55.511719 173.203125 C 56.5625 173.507812 56.789062 174.023438 56.175781 174.917969 C 55.136719 176.429688 53.859375 177.589844 51.851562 177.304688 C 51.128906 177.203125 50.433594 176.894531 49.496094 176.613281 C 48.539062 176.964844 47.59375 177.757812 46.746094 178.683594 C 46.609375 178.832031 46.511719 179.050781 46.46875 179.253906 C 46.164062 180.675781 45.878906 182.101562 45.6875 183.589844 C 46.445312 183.171875 47.136719 182.742188 47.683594 182.101562 C 48.03125 181.695312 48.410156 181.320312 48.792969 180.945312 C 50.132812 179.648438 51.675781 179.722656 53.273438 180.320312 C 53.90625 180.558594 54.101562 181.011719 53.773438 181.601562 C 52.992188 183.015625 51.867188 184.03125 50.171875 184.113281 C 49.296875 184.15625 48.414062 184.011719 47.332031 183.941406 C 47.199219 184.054688 46.90625 184.308594 46.613281 184.5625 C 45.699219 185.355469 45.199219 186.292969 45.316406 187.5625 C 45.453125 189.011719 45.480469 190.476562 45.570312 191.933594 C 45.585938 192.199219 45.6875 192.457031 45.773438 192.835938 C 46.332031 192.195312 46.8125 191.675781 47.257812 191.125 C 47.378906 190.980469 47.4375 190.746094 47.449219 190.550781 C 47.589844 188.578125 48.722656 187.203125 50.140625 185.996094 C 50.25 185.90625 50.382812 185.84375 50.511719 185.78125 C 51.65625 185.234375 52.304688 185.660156 52.25 186.9375 C 52.199219 188.128906 51.808594 189.171875 50.863281 189.949219 C 50.367188 190.355469 49.886719 190.8125 49.320312 191.089844 C 47.773438 191.851562 46.96875 193.214844 46.269531 194.667969 C 46.164062 194.890625 46.207031 195.234375 46.289062 195.488281 C 46.578125 196.40625 46.910156 197.308594 47.226562 198.21875 C 47.308594 198.453125 47.480469 198.691406 47.460938 198.917969 C 47.4375 199.15625 47.289062 199.460938 47.097656 199.582031 C 46.96875 199.664062 46.609375 199.535156 46.464844 199.390625 C 46.269531 199.203125 46.148438 198.914062 46.0625 198.648438 C 45.585938 197.15625 45.082031 195.671875 44.691406 194.15625 C 44.300781 192.640625 43.265625 191.640625 42.148438 190.695312 C 41.988281 190.558594 41.671875 190.628906 41.441406 190.558594 C 40.9375 190.40625 40.367188 190.328125 39.957031 190.035156 C 38.851562 189.25 38.09375 188.175781 37.757812 186.84375 C 37.503906 185.832031 37.871094 185.46875 38.929688 185.582031 C 40.84375 185.789062 42.140625 186.773438 42.5625 188.664062 C 42.765625 189.574219 43.207031 190.203125 44.082031 190.753906 Z M 62.027344 156.253906 C 63.523438 157.289062 66.035156 156.292969 67.886719 153.683594 C 65.757812 153.09375 63.039062 154.269531 62.027344 156.253906 Z M 58.117188 162.972656 C 58.660156 163.203125 59.121094 163.503906 59.617188 163.585938 C 60.613281 163.75 62.730469 162.648438 63.359375 161.742188 C 61.066406 160.957031 59.066406 161.125 58.117188 162.972656 Z M 58.535156 168.152344 C 56.097656 167.433594 54.28125 167.757812 53.511719 169.015625 C 54.648438 170.304688 56.546875 169.957031 58.535156 168.152344 Z M 46.773438 168.457031 C 47.117188 166.941406 46.789062 165.683594 45.679688 164.148438 C 44.050781 165.847656 44.519531 167.824219 46.773438 168.457031 Z M 55.558594 157.808594 C 57.050781 157.203125 57.632812 155.441406 56.960938 153.570312 C 55.535156 154.414062 54.875 156.410156 55.558594 157.808594 Z M 51.183594 157.351562 C 49.96875 158.765625 50.070312 160.8125 51.3125 161.742188 C 52.339844 160.285156 51.609375 158.921875 51.183594 157.351562 Z M 51.101562 175.765625 C 52.289062 176.550781 54.210938 175.941406 54.875 174.410156 C 53.390625 173.839844 52.152344 174.285156 51.101562 175.765625 Z M 40.910156 172.503906 C 40.9375 174.179688 41.960938 175.492188 43.207031 175.519531 C 43.105469 173.792969 42.421875 172.867188 40.910156 172.503906 Z M 48.722656 182.765625 C 50.289062 183.085938 51.519531 182.769531 52.382812 181.429688 C 51.199219 180.671875 49.664062 181.277344 48.722656 182.765625 Z M 39.582031 179.027344 C 39.601562 180.445312 40.601562 182.003906 41.730469 182.378906 C 41.789062 181 40.777344 179.417969 39.582031 179.027344 Z M 41.488281 189.363281 C 41.160156 187.605469 40.394531 186.890625 39.09375 187.0625 C 39.664062 188.03125 40.183594 188.972656 41.488281 189.363281 Z M 48.851562 189.777344 C 49.882812 189.148438 50.976562 188.550781 50.917969 186.917969 C 49.835938 187.71875 49.230469 188.660156 48.851562 189.777344 Z M 48.851562 189.777344 " fill-opacity="1" fill-rule="evenodd"/></g><g clip-path="url(#cf60449dc5)"><path fill="#e5d3a6" d="M 152.144531 190.753906 C 152.144531 189.335938 152.023438 188.011719 152.1875 186.726562 C 152.289062 185.957031 152.796875 185.222656 153.191406 184.511719 C 153.304688 184.304688 153.632812 184.160156 153.886719 184.097656 C 156.332031 183.5 157.351562 181.65625 157.957031 179.457031 C 158.03125 179.191406 158.019531 178.890625 158 178.609375 C 157.941406 177.734375 157.277344 177.355469 156.511719 177.675781 C 155.730469 178.003906 154.996094 178.367188 154.578125 179.105469 C 154.085938 179.964844 153.644531 180.863281 153.296875 181.789062 C 153.007812 182.5625 152.75 183.328125 152.03125 183.988281 C 151.9375 183.6875 151.839844 183.445312 151.792969 183.195312 C 151.648438 182.425781 151.539062 181.648438 151.394531 180.878906 C 151.105469 179.359375 152.085938 177.429688 153.539062 176.910156 C 155.324219 176.269531 156.097656 174.855469 156.601562 173.191406 C 156.660156 172.992188 156.660156 172.769531 156.65625 172.554688 C 156.636719 171.316406 156.167969 170.988281 154.980469 171.273438 C 153.65625 171.589844 152.75 172.375 152.28125 173.625 C 152.019531 174.320312 151.742188 175.0625 151.746094 175.785156 C 151.75 176.675781 151.320312 177.238281 150.761719 177.902344 C 150.214844 176.390625 149.691406 174.964844 149.195312 173.523438 C 149.121094 173.308594 149.171875 173.035156 149.207031 172.792969 C 149.28125 172.335938 149.421875 171.890625 149.476562 171.433594 C 149.613281 170.390625 150.007812 169.664062 151.046875 169.140625 C 152.628906 168.339844 153.195312 166.292969 152.429688 164.691406 C 152.109375 164.027344 151.664062 163.402344 151.175781 162.84375 C 150.601562 162.191406 150.046875 162.265625 149.65625 163.027344 C 149.171875 163.980469 148.714844 164.953125 148.355469 165.957031 C 148.027344 166.875 147.90625 167.882812 148.359375 168.777344 C 148.785156 169.621094 148.5625 170.339844 148.257812 171.320312 C 147.964844 170.773438 147.753906 170.382812 147.542969 169.996094 C 147.179688 169.34375 146.894531 168.625 146.433594 168.050781 C 145.601562 167.015625 145.550781 165.851562 145.617188 164.636719 C 145.636719 164.28125 145.675781 163.921875 145.667969 163.566406 C 145.660156 163.15625 145.789062 162.847656 146.074219 162.519531 C 147.703125 160.664062 147.488281 157.683594 145.640625 156.070312 C 144.890625 155.417969 144.351562 155.53125 144.050781 156.480469 C 143.738281 157.464844 143.476562 158.464844 143.257812 159.472656 C 143.042969 160.460938 143.214844 161.457031 143.871094 162.203125 C 144.527344 162.941406 144.570312 163.703125 144.398438 164.683594 C 144.1875 164.488281 144.011719 164.351562 143.871094 164.179688 C 143.371094 163.578125 142.917969 162.925781 142.378906 162.359375 C 141.863281 161.816406 141.617188 161.214844 141.503906 160.476562 C 141.382812 159.714844 141.335938 159.058594 141.84375 158.378906 C 142.117188 158.011719 142.195312 157.445312 142.230469 156.957031 C 142.363281 155.003906 140.976562 152.757812 139.183594 151.9375 C 138.402344 151.578125 137.960938 151.761719 137.929688 152.589844 C 137.882812 153.792969 137.90625 155.007812 138.003906 156.210938 C 138.082031 157.167969 138.558594 157.949219 139.410156 158.492188 C 140 158.871094 139.972656 158.910156 140.148438 159.828125 C 139.898438 159.660156 139.710938 159.554688 139.542969 159.417969 C 138.886719 158.871094 138.253906 158.289062 137.574219 157.769531 C 136.589844 157.019531 135.699219 156.261719 135.015625 155.144531 C 133.582031 152.824219 130.140625 151.707031 127.535156 152.472656 C 127.402344 152.511719 127.265625 152.558594 127.136719 152.621094 C 126.421875 152.964844 126.257812 153.488281 126.78125 154.066406 C 127.941406 155.328125 129.15625 156.546875 130.710938 157.328125 C 131.84375 157.894531 133.039062 157.984375 134.242188 157.554688 C 134.59375 157.429688 134.890625 157.355469 135.242188 157.59375 C 137.1875 158.925781 138.964844 160.453125 140.574219 162.214844 C 139.582031 162.445312 139.464844 162.4375 138.921875 161.773438 C 137.835938 160.441406 136.4375 159.890625 134.753906 160.089844 C 133.945312 160.1875 133.140625 160.371094 132.351562 160.570312 C 132.015625 160.652344 131.679688 160.835938 131.414062 161.054688 C 130.898438 161.484375 130.859375 162.027344 131.390625 162.417969 C 132.761719 163.441406 134.179688 164.40625 135.914062 164.746094 C 136.820312 164.925781 137.640625 164.675781 138.3125 164.105469 C 139.167969 163.375 140.0625 163.449219 141.011719 163.78125 C 141.9375 164.105469 142.730469 164.59375 143.277344 165.460938 C 143.957031 166.539062 144.695312 167.582031 145.539062 168.832031 C 144.628906 168.6875 143.988281 168.636719 143.5625 167.945312 C 143.007812 167.042969 142.070312 166.757812 141.097656 166.628906 C 139.625 166.4375 138.179688 166.632812 136.765625 167.050781 C 136.5625 167.109375 136.359375 167.203125 136.191406 167.328125 C 135.671875 167.71875 135.597656 168.300781 136.109375 168.679688 C 137.304688 169.582031 138.539062 170.457031 140.011719 170.851562 C 141.144531 171.15625 142.246094 170.929688 143.140625 170.195312 C 143.742188 169.699219 144.261719 169.726562 144.902344 169.996094 C 145.960938 170.4375 146.8125 171.0625 147.242188 172.1875 C 147.765625 173.539062 148.34375 174.871094 148.8125 176.269531 C 147.523438 175.703125 146.257812 175.210938 145.269531 174.199219 C 143.984375 172.894531 142.414062 172.710938 140.714844 173.203125 C 139.664062 173.507812 139.441406 174.023438 140.054688 174.917969 C 141.089844 176.429688 142.367188 177.589844 144.378906 177.304688 C 145.097656 177.203125 145.792969 176.894531 146.730469 176.613281 C 147.6875 176.964844 148.632812 177.757812 149.480469 178.683594 C 149.617188 178.832031 149.714844 179.050781 149.757812 179.253906 C 150.0625 180.675781 150.347656 182.101562 150.539062 183.589844 C 149.785156 183.171875 149.089844 182.742188 148.542969 182.101562 C 148.195312 181.695312 147.816406 181.320312 147.433594 180.945312 C 146.097656 179.648438 144.550781 179.722656 142.953125 180.320312 C 142.320312 180.558594 142.125 181.011719 142.453125 181.601562 C 143.238281 183.015625 144.359375 184.03125 146.054688 184.113281 C 146.929688 184.15625 147.8125 184.011719 148.898438 183.941406 C 149.027344 184.054688 149.320312 184.308594 149.613281 184.5625 C 150.527344 185.355469 151.027344 186.292969 150.910156 187.5625 C 150.773438 189.011719 150.746094 190.476562 150.65625 191.933594 C 150.640625 192.199219 150.542969 192.457031 150.453125 192.835938 C 149.894531 192.195312 149.414062 191.675781 148.96875 191.125 C 148.847656 190.980469 148.789062 190.746094 148.777344 190.550781 C 148.640625 188.578125 147.503906 187.203125 146.085938 185.996094 C 145.976562 185.90625 145.84375 185.84375 145.714844 185.78125 C 144.570312 185.234375 143.921875 185.660156 143.976562 186.9375 C 144.027344 188.128906 144.417969 189.171875 145.367188 189.949219 C 145.859375 190.355469 146.34375 190.8125 146.90625 191.089844 C 148.453125 191.851562 149.261719 193.214844 149.957031 194.667969 C 150.0625 194.890625 150.019531 195.234375 149.941406 195.488281 C 149.652344 196.40625 149.316406 197.308594 149 198.21875 C 148.917969 198.453125 148.746094 198.691406 148.765625 198.917969 C 148.789062 199.15625 148.9375 199.460938 149.128906 199.582031 C 149.257812 199.664062 149.617188 199.535156 149.765625 199.390625 C 149.957031 199.203125 150.082031 198.914062 150.164062 198.648438 C 150.640625 197.15625 151.144531 195.671875 151.535156 194.15625 C 151.929688 192.640625 152.960938 191.640625 154.082031 190.695312 C 154.242188 190.558594 154.554688 190.628906 154.785156 190.558594 C 155.289062 190.40625 155.859375 190.328125 156.269531 190.035156 C 157.375 189.25 158.132812 188.175781 158.46875 186.84375 C 158.722656 185.832031 158.359375 185.46875 157.300781 185.582031 C 155.382812 185.789062 154.085938 186.773438 153.664062 188.664062 C 153.460938 189.574219 153.023438 190.203125 152.144531 190.753906 Z M 134.199219 156.253906 C 132.707031 157.289062 130.191406 156.292969 128.339844 153.683594 C 130.46875 153.09375 133.1875 154.269531 134.199219 156.253906 Z M 138.109375 162.972656 C 137.566406 163.203125 137.105469 163.503906 136.609375 163.585938 C 135.613281 163.75 133.496094 162.648438 132.867188 161.742188 C 135.160156 160.957031 137.164062 161.125 138.109375 162.972656 Z M 137.691406 168.152344 C 140.128906 167.433594 141.945312 167.757812 142.714844 169.015625 C 141.578125 170.304688 139.683594 169.957031 137.691406 168.152344 Z M 149.457031 168.457031 C 149.109375 166.941406 149.4375 165.683594 150.546875 164.148438 C 152.175781 165.847656 151.707031 167.824219 149.457031 168.457031 Z M 140.671875 157.808594 C 139.175781 157.203125 138.59375 155.441406 139.265625 153.570312 C 140.691406 154.414062 141.355469 156.410156 140.671875 157.808594 Z M 145.042969 157.351562 C 146.257812 158.765625 146.15625 160.8125 144.914062 161.742188 C 143.886719 160.285156 144.617188 158.921875 145.042969 157.351562 Z M 145.125 175.765625 C 143.9375 176.550781 142.019531 175.941406 141.351562 174.410156 C 142.835938 173.839844 144.074219 174.285156 145.125 175.765625 Z M 155.316406 172.503906 C 155.289062 174.179688 154.265625 175.492188 153.019531 175.519531 C 153.121094 173.792969 153.804688 172.867188 155.316406 172.503906 Z M 147.503906 182.765625 C 145.9375 183.085938 144.707031 182.769531 143.84375 181.429688 C 145.027344 180.671875 146.5625 181.277344 147.503906 182.765625 Z M 156.644531 179.027344 C 156.625 180.445312 155.625 182.003906 154.496094 182.378906 C 154.4375 181 155.453125 179.417969 156.644531 179.027344 Z M 154.742188 189.363281 C 155.066406 187.605469 155.832031 186.890625 157.132812 187.0625 C 156.5625 188.03125 156.042969 188.972656 154.742188 189.363281 Z M 147.375 189.777344 C 146.34375 189.148438 145.253906 188.550781 145.308594 186.917969 C 146.390625 187.71875 146.996094 188.660156 147.375 189.777344 Z M 147.375 189.777344 " fill-opacity="1" fill-rule="evenodd"/></g><g clip-path="url(#7f7ac619c7)"><g clip-path="url(#0c47b2648c)"><g clip-path="url(#44bacdfe7c)"><path fill="#e5d3a6" d="M 57.359375 212.066406 C 58.003906 213.875 57.875 215.890625 57 217.597656 C 56.152344 219.261719 54.703125 220.496094 52.925781 221.070312 C 51.148438 221.644531 49.253906 221.496094 47.589844 220.644531 C 45.996094 219.832031 44.789062 218.453125 44.1875 216.765625 C 43.542969 214.960938 43.671875 212.941406 44.546875 211.234375 C 45.394531 209.570312 46.84375 208.335938 48.621094 207.761719 C 50.398438 207.1875 52.292969 207.339844 53.957031 208.1875 C 55.550781 209.003906 56.757812 210.378906 57.359375 212.066406 Z M 57.359375 212.066406 " fill-opacity="1" fill-rule="nonzero"/></g></g></g><g clip-path="url(#971b1d21d6)"><g clip-path="url(#d4bacab9b1)"><g clip-path="url(#6359f2d205)"><path fill="#e5d3a6" d="M 45.5625 211.753906 C 44.09375 214.632812 45.234375 218.15625 48.109375 219.628906 C 50.988281 221.097656 54.511719 219.957031 55.984375 217.078125 C 57.453125 214.203125 56.3125 210.675781 53.433594 209.207031 C 50.558594 207.738281 47.035156 208.878906 45.5625 211.753906 Z M 45.5625 211.753906 " fill-opacity="1" fill-rule="nonzero"/></g></g></g><g clip-path="url(#98a4ee8ed6)"><g clip-path="url(#961e5985ef)"><g clip-path="url(#e49495c3c6)"><path fill="#e5d3a6" d="M 52.734375 199.773438 C 53.476562 201.859375 52.921875 204.195312 51.316406 205.722656 C 49.078125 207.859375 45.519531 207.773438 43.382812 205.53125 C 42.835938 204.957031 42.425781 204.289062 42.160156 203.550781 C 41.417969 201.460938 41.972656 199.125 43.578125 197.597656 C 45.816406 195.460938 49.375 195.550781 51.511719 197.789062 C 52.058594 198.363281 52.46875 199.03125 52.734375 199.773438 Z M 52.734375 199.773438 " fill-opacity="1" fill-rule="nonzero"/></g></g></g><g clip-path="url(#2b24ae1727)"><g clip-path="url(#532883b95a)"><g clip-path="url(#be7fa29a52)"><path fill="#e5d3a6" d="M 50.683594 198.578125 C 48.980469 196.792969 46.152344 196.722656 44.363281 198.425781 C 42.578125 200.125 42.507812 202.957031 44.210938 204.742188 C 45.914062 206.53125 48.742188 206.597656 50.53125 204.898438 C 52.316406 203.195312 52.386719 200.367188 50.683594 198.578125 Z M 50.683594 198.578125 " fill-opacity="1" fill-rule="nonzero"/></g></g></g><g clip-path="url(#e27035cdd8)"><g clip-path="url(#e37a0f90d2)"><g clip-path="url(#1654bb5a02)"><path fill="#e5d3a6" d="M 64.191406 209.96875 C 64.625 211.179688 64.304688 212.53125 63.375 213.417969 C 62.078125 214.65625 60.011719 214.605469 58.777344 213.308594 C 58.460938 212.976562 58.222656 212.589844 58.066406 212.160156 C 57.636719 210.949219 57.957031 209.597656 58.886719 208.710938 C 60.1875 207.472656 62.25 207.523438 63.484375 208.820312 C 63.800781 209.152344 64.039062 209.539062 64.191406 209.96875 Z M 64.191406 209.96875 " fill-opacity="1" fill-rule="nonzero"/></g></g></g><g clip-path="url(#9c34f4308c)"><g clip-path="url(#91c4356c19)"><g clip-path="url(#2412fc8511)"><path fill="#e5d3a6" d="M 59.601562 212.519531 C 60.40625 213.363281 61.742188 213.394531 62.585938 212.589844 C 63.429688 211.789062 63.460938 210.453125 62.65625 209.609375 C 61.855469 208.765625 60.519531 208.734375 59.675781 209.535156 C 58.832031 210.339844 58.800781 211.675781 59.601562 212.519531 Z M 59.601562 212.519531 " fill-opacity="1" fill-rule="nonzero"/></g></g></g><g clip-path="url(#c119de114f)"><g clip-path="url(#f43fbb54b9)"><g clip-path="url(#3b8afab172)"><path fill="#e5d3a6" d="M 61.433594 203.25 C 61.941406 204.675781 61.5625 206.269531 60.46875 207.316406 C 58.9375 208.773438 56.507812 208.714844 55.050781 207.183594 C 54.675781 206.792969 54.394531 206.335938 54.214844 205.828125 C 53.707031 204.402344 54.085938 202.808594 55.179688 201.765625 C 56.710938 200.308594 59.140625 200.367188 60.597656 201.894531 C 60.972656 202.289062 61.253906 202.746094 61.433594 203.25 Z M 61.433594 203.25 " fill-opacity="1" fill-rule="nonzero"/></g></g></g><g clip-path="url(#6c6e848c2f)"><g clip-path="url(#43ccb456dc)"><g clip-path="url(#45afdf53c1)"><path fill="#e5d3a6" d="M 59.773438 202.683594 C 58.746094 201.609375 57.042969 201.570312 55.96875 202.59375 C 54.894531 203.617188 54.851562 205.320312 55.878906 206.394531 C 56.902344 207.46875 58.601562 207.511719 59.679688 206.488281 C 60.753906 205.464844 60.796875 203.761719 59.773438 202.683594 Z M 59.773438 202.683594 " fill-opacity="1" fill-rule="nonzero"/></g></g></g><g clip-path="url(#a0331e571e)"><g clip-path="url(#aefa6a14bc)"><g clip-path="url(#041950cbc1)"><path fill="#3e303f" d="M 53.433594 209.207031 C 50.558594 207.738281 47.035156 208.878906 45.5625 211.753906 C 44.09375 214.632812 45.234375 218.15625 48.109375 219.628906 C 50.988281 221.097656 54.511719 219.957031 55.984375 217.078125 C 57.453125 214.203125 56.3125 210.675781 53.433594 209.207031 Z M 48.816406 217.566406 C 47.152344 216.714844 46.492188 214.675781 47.34375 213.007812 C 48.195312 211.34375 50.234375 210.683594 51.898438 211.535156 C 53.566406 212.386719 54.226562 214.425781 53.375 216.09375 C 52.523438 217.757812 50.484375 218.417969 48.816406 217.566406 Z M 48.816406 217.566406 " fill-opacity="1" fill-rule="nonzero"/></g></g></g><g clip-path="url(#19a532f52b)"><g clip-path="url(#29bce7d0de)"><g clip-path="url(#f7d6584919)"><path fill="#3e303f" d="M 50.53125 204.898438 C 52.316406 203.195312 52.386719 200.367188 50.683594 198.578125 C 48.980469 196.792969 46.152344 196.722656 44.363281 198.425781 C 42.578125 200.125 42.507812 202.957031 44.210938 204.742188 C 45.914062 206.53125 48.742188 206.597656 50.53125 204.898438 Z M 48.753906 203.371094 C 47.992188 204.097656 46.785156 204.070312 46.058594 203.308594 C 45.335938 202.542969 45.363281 201.339844 46.125 200.613281 C 46.886719 199.890625 48.09375 199.917969 48.816406 200.679688 C 49.542969 201.441406 49.511719 202.644531 48.753906 203.371094 Z M 48.753906 203.371094 " fill-opacity="1" fill-rule="nonzero"/></g></g></g><g clip-path="url(#43def38480)"><g clip-path="url(#d6821a33f3)"><g clip-path="url(#79a9c4599e)"><path fill="#3e303f" d="M 62.65625 209.609375 C 61.855469 208.765625 60.519531 208.734375 59.675781 209.535156 C 58.832031 210.339844 58.800781 211.675781 59.601562 212.519531 C 60.40625 213.363281 61.742188 213.394531 62.585938 212.589844 C 63.429688 211.789062 63.460938 210.453125 62.65625 209.609375 Z M 62.65625 209.609375 " fill-opacity="1" fill-rule="nonzero"/></g></g></g><g clip-path="url(#1a0160cb6f)"><g clip-path="url(#bf1c01ccac)"><g clip-path="url(#3774754d40)"><path fill="#3e303f" d="M 55.878906 206.394531 C 56.902344 207.46875 58.601562 207.511719 59.679688 206.488281 C 60.753906 205.464844 60.796875 203.761719 59.773438 202.683594 C 58.746094 201.609375 57.042969 201.570312 55.96875 202.59375 C 54.894531 203.617188 54.851562 205.320312 55.878906 206.394531 Z M 55.878906 206.394531 " fill-opacity="1" fill-rule="nonzero"/></g></g></g><g clip-path="url(#016282cc7a)"><g clip-path="url(#9be415479f)"><g clip-path="url(#37e5f7dde8)"><path fill="#e5d3a6" d="M 138.859375 212.0625 C 138.210938 213.871094 138.34375 215.886719 139.214844 217.597656 C 140.0625 219.261719 141.511719 220.492188 143.289062 221.070312 C 145.066406 221.644531 146.960938 221.496094 148.625 220.648438 C 150.21875 219.832031 151.425781 218.457031 152.03125 216.769531 C 152.675781 214.964844 152.542969 212.945312 151.671875 211.238281 C 150.824219 209.574219 149.375 208.339844 147.597656 207.765625 C 145.820312 207.1875 143.925781 207.339844 142.265625 208.1875 C 140.667969 209.003906 139.460938 210.378906 138.859375 212.0625 Z M 138.859375 212.0625 " fill-opacity="1" fill-rule="nonzero"/></g></g></g><g clip-path="url(#0330582842)"><g clip-path="url(#0860fe5b95)"><g clip-path="url(#b1587bab1b)"><path fill="#e5d3a6" d="M 150.65625 211.757812 C 152.125 214.636719 150.980469 218.160156 148.105469 219.628906 C 145.226562 221.097656 141.703125 219.953125 140.234375 217.078125 C 138.761719 214.199219 139.90625 210.675781 142.785156 209.207031 C 145.660156 207.738281 149.183594 208.878906 150.65625 211.757812 Z M 150.65625 211.757812 " fill-opacity="1" fill-rule="nonzero"/></g></g></g><g clip-path="url(#f8a633e6e0)"><g clip-path="url(#5336686af2)"><g clip-path="url(#67890d5ebd)"><path fill="#e5d3a6" d="M 143.488281 199.773438 C 142.746094 201.859375 143.300781 204.195312 144.902344 205.722656 C 147.140625 207.859375 150.703125 207.773438 152.839844 205.535156 C 153.382812 204.960938 153.796875 204.292969 154.058594 203.554688 C 154.804688 201.464844 154.25 199.128906 152.648438 197.601562 C 150.410156 195.464844 146.847656 195.550781 144.710938 197.789062 C 144.164062 198.363281 143.753906 199.03125 143.488281 199.773438 Z M 143.488281 199.773438 " fill-opacity="1" fill-rule="nonzero"/></g></g></g><g clip-path="url(#28ba354d7f)"><g clip-path="url(#07d40d9b53)"><g clip-path="url(#659aa00e81)"><path fill="#e5d3a6" d="M 145.539062 198.578125 C 147.242188 196.792969 150.074219 196.722656 151.859375 198.425781 C 153.644531 200.128906 153.710938 202.960938 152.011719 204.746094 C 150.308594 206.53125 147.476562 206.601562 145.691406 204.898438 C 143.90625 203.195312 143.835938 200.367188 145.539062 198.578125 Z M 145.539062 198.578125 " fill-opacity="1" fill-rule="nonzero"/></g></g></g><g clip-path="url(#e33f00ea59)"><g clip-path="url(#905244e074)"><g clip-path="url(#792a83c371)"><path fill="#e5d3a6" d="M 132.027344 209.964844 C 131.59375 211.175781 131.914062 212.527344 132.84375 213.414062 C 134.140625 214.652344 136.203125 214.601562 137.441406 213.304688 C 137.757812 212.972656 137.996094 212.585938 138.148438 212.15625 C 138.582031 210.949219 138.261719 209.59375 137.332031 208.707031 C 136.03125 207.46875 133.96875 207.519531 132.734375 208.816406 C 132.417969 209.148438 132.179688 209.535156 132.027344 209.964844 Z M 132.027344 209.964844 " fill-opacity="1" fill-rule="nonzero"/></g></g></g><g clip-path="url(#5abee8ee5b)"><g clip-path="url(#59a351e63a)"><g clip-path="url(#6425de3e75)"><path fill="#e5d3a6" d="M 136.613281 212.515625 C 135.808594 213.359375 134.476562 213.390625 133.632812 212.585938 C 132.789062 211.78125 132.757812 210.449219 133.5625 209.605469 C 134.363281 208.761719 135.699219 208.730469 136.542969 209.535156 C 137.386719 210.335938 137.417969 211.671875 136.613281 212.515625 Z M 136.613281 212.515625 " fill-opacity="1" fill-rule="nonzero"/></g></g></g><g clip-path="url(#089249558e)"><g clip-path="url(#6f133a23e1)"><g clip-path="url(#575f318222)"><path fill="#e5d3a6" d="M 134.789062 203.246094 C 134.277344 204.671875 134.65625 206.265625 135.75 207.3125 C 137.28125 208.769531 139.710938 208.710938 141.171875 207.183594 C 141.542969 206.789062 141.824219 206.335938 142.007812 205.828125 C 142.515625 204.402344 142.136719 202.808594 141.042969 201.765625 C 139.511719 200.304688 137.082031 200.363281 135.625 201.894531 C 135.25 202.285156 134.96875 202.742188 134.789062 203.246094 Z M 134.789062 203.246094 " fill-opacity="1" fill-rule="nonzero"/></g></g></g><g clip-path="url(#950998e562)"><g clip-path="url(#8651e08487)"><g clip-path="url(#49862e7bf5)"><path fill="#e5d3a6" d="M 136.449219 202.683594 C 137.476562 201.605469 139.179688 201.566406 140.253906 202.589844 C 141.328125 203.617188 141.367188 205.320312 140.34375 206.394531 C 139.316406 207.46875 137.617188 207.511719 136.539062 206.484375 C 135.464844 205.460938 135.425781 203.757812 136.449219 202.683594 Z M 136.449219 202.683594 " fill-opacity="1" fill-rule="nonzero"/></g></g></g><g clip-path="url(#f57d51196e)"><g clip-path="url(#d73613ac60)"><g clip-path="url(#967662651d)"><path fill="#3e303f" d="M 142.785156 209.207031 C 145.660156 207.738281 149.183594 208.878906 150.65625 211.757812 C 152.125 214.636719 150.980469 218.160156 148.105469 219.628906 C 145.226562 221.097656 141.703125 219.953125 140.234375 217.078125 C 138.761719 214.199219 139.90625 210.675781 142.785156 209.207031 Z M 147.398438 217.566406 C 149.0625 216.71875 149.726562 214.675781 148.875 213.011719 C 148.023438 211.34375 145.984375 210.683594 144.316406 211.535156 C 142.652344 212.386719 141.992188 214.425781 142.839844 216.089844 C 143.691406 217.757812 145.730469 218.417969 147.398438 217.566406 Z M 147.398438 217.566406 " fill-opacity="1" fill-rule="nonzero"/></g></g></g><g clip-path="url(#377e94ad5a)"><g clip-path="url(#2254086c70)"><g clip-path="url(#de57c8940c)"><path fill="#3e303f" d="M 145.691406 204.898438 C 143.90625 203.195312 143.835938 200.367188 145.539062 198.578125 C 147.242188 196.792969 150.074219 196.722656 151.859375 198.425781 C 153.644531 200.128906 153.710938 202.960938 152.011719 204.746094 C 150.308594 206.53125 147.476562 206.601562 145.691406 204.898438 Z M 147.46875 203.375 C 148.230469 204.097656 149.4375 204.070312 150.164062 203.308594 C 150.886719 202.546875 150.859375 201.34375 150.097656 200.617188 C 149.335938 199.890625 148.128906 199.921875 147.40625 200.679688 C 146.679688 201.441406 146.707031 202.648438 147.46875 203.375 Z M 147.46875 203.375 " fill-opacity="1" fill-rule="nonzero"/></g></g></g><g clip-path="url(#884a494c7c)"><g clip-path="url(#2dc658f5b6)"><g clip-path="url(#bc2d1323a3)"><path fill="#3e303f" d="M 133.5625 209.605469 C 134.363281 208.761719 135.699219 208.730469 136.542969 209.535156 C 137.386719 210.335938 137.417969 211.671875 136.613281 212.515625 C 135.808594 213.359375 134.476562 213.390625 133.632812 212.585938 C 132.789062 211.78125 132.757812 210.449219 133.5625 209.605469 Z M 133.5625 209.605469 " fill-opacity="1" fill-rule="nonzero"/></g></g></g><g clip-path="url(#b62156f210)"><g clip-path="url(#6c8eeca08d)"><g clip-path="url(#d16375a4fb)"><path fill="#3e303f" d="M 140.34375 206.394531 C 139.316406 207.46875 137.617188 207.511719 136.539062 206.484375 C 135.464844 205.460938 135.425781 203.757812 136.449219 202.683594 C 137.476562 201.605469 139.179688 201.566406 140.253906 202.589844 C 141.328125 203.617188 141.367188 205.320312 140.34375 206.394531 Z M 140.34375 206.394531 " fill-opacity="1" fill-rule="nonzero"/></g></g></g><g fill="#e5d3a6" fill-opacity="1"><g transform="translate(166.628958, 198.374987)"><g><path d="M 16.125 -11.71875 L 16.125 -7.546875 C 16.125 -5.003906 15.503906 -3.050781 14.265625 -1.6875 C 13.023438 -0.320312 11.191406 0.359375 8.765625 0.359375 C 6.335938 0.359375 4.5 -0.320312 3.25 -1.6875 C 2.007812 -3.050781 1.390625 -5.003906 1.390625 -7.546875 L 1.390625 -23.90625 C 1.390625 -26.445312 2.007812 -28.398438 3.25 -29.765625 C 4.5 -31.128906 6.335938 -31.8125 8.765625 -31.8125 C 11.191406 -31.8125 13.023438 -31.128906 14.265625 -29.765625 C 15.503906 -28.398438 16.125 -26.445312 16.125 -23.90625 L 16.125 -20.84375 L 11.453125 -20.84375 L 11.453125 -24.21875 C 11.453125 -25.351562 11.21875 -26.148438 10.75 -26.609375 C 10.289062 -27.078125 9.671875 -27.3125 8.890625 -27.3125 C 8.117188 -27.3125 7.5 -27.078125 7.03125 -26.609375 C 6.5625 -26.148438 6.328125 -25.351562 6.328125 -24.21875 L 6.328125 -7.234375 C 6.328125 -6.097656 6.5625 -5.300781 7.03125 -4.84375 C 7.5 -4.394531 8.117188 -4.171875 8.890625 -4.171875 C 9.671875 -4.171875 10.289062 -4.394531 10.75 -4.84375 C 11.21875 -5.300781 11.453125 -6.097656 11.453125 -7.234375 L 11.453125 -11.71875 Z M 16.125 -11.71875 "/></g></g></g><g fill="#e5d3a6" fill-opacity="1"><g transform="translate(183.96726, 198.374987)"><g><path d="M 17.796875 0 L 12.796875 0 L 11.953125 -5.703125 L 5.890625 -5.703125 L 5.03125 0 L 0.5 0 L 5.53125 -31.453125 L 12.765625 -31.453125 Z M 6.515625 -9.96875 L 11.28125 -9.96875 L 8.890625 -25.875 Z M 6.515625 -9.96875 "/></g></g></g><g fill="#e5d3a6" fill-opacity="1"><g transform="translate(202.248841, 198.374987)"><g><path d="M 12.265625 -9.125 L 15.640625 -31.453125 L 22.5 -31.453125 L 22.5 0 L 17.828125 0 L 17.828125 -22.546875 L 14.421875 0 L 9.75 0 L 6.0625 -22.234375 L 6.0625 0 L 1.75 0 L 1.75 -31.453125 L 8.625 -31.453125 Z M 12.265625 -9.125 "/></g></g></g><g fill="#e5d3a6" fill-opacity="1"><g transform="translate(226.549418, 198.374987)"><g><path d="M 6.734375 -18.1875 L 13.515625 -18.1875 L 13.515625 -13.703125 L 6.734375 -13.703125 L 6.734375 -4.5 L 15.28125 -4.5 L 15.28125 0 L 1.796875 0 L 1.796875 -31.453125 L 15.28125 -31.453125 L 15.28125 -26.953125 L 6.734375 -26.953125 Z M 6.734375 -18.1875 "/></g></g></g><g fill="#e5d3a6" fill-opacity="1"><g transform="translate(243.079195, 198.374987)"><g><path d="M 12.125 0 C 12.070312 -0.207031 12.015625 -0.398438 11.953125 -0.578125 C 11.890625 -0.765625 11.832031 -0.988281 11.78125 -1.25 C 11.738281 -1.519531 11.710938 -1.863281 11.703125 -2.28125 C 11.691406 -2.707031 11.6875 -3.234375 11.6875 -3.859375 L 11.6875 -8.8125 C 11.6875 -10.269531 11.429688 -11.296875 10.921875 -11.890625 C 10.410156 -12.492188 9.585938 -12.796875 8.453125 -12.796875 L 6.734375 -12.796875 L 6.734375 0 L 1.796875 0 L 1.796875 -31.453125 L 9.25 -31.453125 C 11.832031 -31.453125 13.695312 -30.851562 14.84375 -29.65625 C 16 -28.457031 16.578125 -26.644531 16.578125 -24.21875 L 16.578125 -21.75 C 16.578125 -18.507812 15.5 -16.378906 13.34375 -15.359375 C 14.601562 -14.847656 15.460938 -14.015625 15.921875 -12.859375 C 16.390625 -11.710938 16.625 -10.316406 16.625 -8.671875 L 16.625 -3.8125 C 16.625 -3.039062 16.648438 -2.363281 16.703125 -1.78125 C 16.765625 -1.195312 16.914062 -0.601562 17.15625 0 Z M 6.734375 -26.953125 L 6.734375 -17.296875 L 8.671875 -17.296875 C 9.597656 -17.296875 10.320312 -17.535156 10.84375 -18.015625 C 11.375 -18.492188 11.640625 -19.363281 11.640625 -20.625 L 11.640625 -23.71875 C 11.640625 -24.851562 11.4375 -25.675781 11.03125 -26.1875 C 10.625 -26.695312 9.988281 -26.953125 9.125 -26.953125 Z M 6.734375 -26.953125 "/></g></g></g><g fill="#e5d3a6" fill-opacity="1"><g transform="translate(261.136185, 198.374987)"><g><path d="M 17.796875 0 L 12.796875 0 L 11.953125 -5.703125 L 5.890625 -5.703125 L 5.03125 0 L 0.5 0 L 5.53125 -31.453125 L 12.765625 -31.453125 Z M 6.515625 -9.96875 L 11.28125 -9.96875 L 8.890625 -25.875 Z M 6.515625 -9.96875 "/></g></g></g><g fill="#e5d3a6" fill-opacity="1"><g transform="translate(279.417766, 198.374987)"><g/></g></g><g fill="#e5d3a6" fill-opacity="1"><g transform="translate(286.380042, 198.374987)"><g><path d="M 18.28125 -31.453125 L 13.125 -16.171875 L 18.640625 0 L 13.4375 0 L 9.390625 -12.4375 L 5.296875 0 L 0.671875 0 L 6.203125 -16.171875 L 1.03125 -31.453125 L 6.15625 -31.453125 L 9.890625 -19.859375 L 13.703125 -31.453125 Z M 18.28125 -31.453125 "/></g></g></g><g fill="#e5d3a6" fill-opacity="1"><g transform="translate(305.694726, 198.374987)"><g><path d="M 6.421875 -10.421875 L 0.1875 -31.453125 L 5.34375 -31.453125 L 9.125 -17.109375 L 12.890625 -31.453125 L 17.609375 -31.453125 L 11.359375 -10.421875 L 11.359375 0 L 6.421875 0 Z M 6.421875 -10.421875 "/></g></g></g><g fill="#e5d3a6" fill-opacity="1"><g transform="translate(323.482208, 198.374987)"><g><path d="M 15.5 -31.453125 L 15.5 -27.046875 L 6.109375 -4.5 L 15.5 -4.5 L 15.5 0 L 1.03125 0 L 1.03125 -4.40625 L 10.421875 -26.953125 L 1.484375 -26.953125 L 1.484375 -31.453125 Z M 15.5 -31.453125 "/></g></g></g><g fill="#e5d3a6" fill-opacity="1"><g transform="translate(169.603967, 218.544742)"><g><path d="M 5 -3.640625 L 5 -2.34375 C 5 -1.550781 4.804688 -0.941406 4.421875 -0.515625 C 4.035156 -0.0976562 3.46875 0.109375 2.71875 0.109375 C 1.96875 0.109375 1.398438 -0.0976562 1.015625 -0.515625 C 0.628906 -0.941406 0.4375 -1.550781 0.4375 -2.34375 L 0.4375 -7.40625 C 0.4375 -8.195312 0.628906 -8.800781 1.015625 -9.21875 C 1.398438 -9.644531 1.96875 -9.859375 2.71875 -9.859375 C 3.46875 -9.859375 4.035156 -9.644531 4.421875 -9.21875 C 4.804688 -8.800781 5 -8.195312 5 -7.40625 L 5 -6.453125 L 3.546875 -6.453125 L 3.546875 -7.5 C 3.546875 -7.851562 3.472656 -8.101562 3.328125 -8.25 C 3.191406 -8.394531 3 -8.46875 2.75 -8.46875 C 2.507812 -8.46875 2.316406 -8.394531 2.171875 -8.25 C 2.035156 -8.101562 1.96875 -7.851562 1.96875 -7.5 L 1.96875 -2.234375 C 1.96875 -1.890625 2.035156 -1.644531 2.171875 -1.5 C 2.316406 -1.363281 2.507812 -1.296875 2.75 -1.296875 C 3 -1.296875 3.191406 -1.363281 3.328125 -1.5 C 3.472656 -1.644531 3.546875 -1.890625 3.546875 -2.234375 L 3.546875 -3.640625 Z M 5 -3.640625 "/></g></g></g><g fill="#e5d3a6" fill-opacity="1"><g transform="translate(174.977826, 218.544742)"><g><path d="M 5.515625 0 L 3.96875 0 L 3.703125 -1.765625 L 1.828125 -1.765625 L 1.5625 0 L 0.15625 0 L 1.71875 -9.75 L 3.953125 -9.75 Z M 2.015625 -3.09375 L 3.5 -3.09375 L 2.75 -8.015625 Z M 2.015625 -3.09375 "/></g></g></g><g fill="#e5d3a6" fill-opacity="1"><g transform="translate(180.644048, 218.544742)"><g><path d="M 2.8125 -9.75 C 3.582031 -9.75 4.15625 -9.539062 4.53125 -9.125 C 4.90625 -8.71875 5.09375 -8.125 5.09375 -7.34375 L 5.09375 -6.0625 C 5.09375 -5.28125 4.90625 -4.679688 4.53125 -4.265625 C 4.15625 -3.859375 3.582031 -3.65625 2.8125 -3.65625 L 2.09375 -3.65625 L 2.09375 0 L 0.5625 0 L 0.5625 -9.75 Z M 2.09375 -8.359375 L 2.09375 -5.046875 L 2.8125 -5.046875 C 3.050781 -5.046875 3.234375 -5.109375 3.359375 -5.234375 C 3.492188 -5.367188 3.5625 -5.613281 3.5625 -5.96875 L 3.5625 -7.4375 C 3.5625 -7.789062 3.492188 -8.03125 3.359375 -8.15625 C 3.234375 -8.289062 3.050781 -8.359375 2.8125 -8.359375 Z M 2.09375 -8.359375 "/></g></g></g><g fill="#e5d3a6" fill-opacity="1"><g transform="translate(185.96222, 218.544742)"><g><path d="M 0.109375 -9.75 L 4.84375 -9.75 L 4.84375 -8.359375 L 3.25 -8.359375 L 3.25 0 L 1.71875 0 L 1.71875 -8.359375 L 0.109375 -8.359375 Z M 0.109375 -9.75 "/></g></g></g><g fill="#e5d3a6" fill-opacity="1"><g transform="translate(190.918427, 218.544742)"><g><path d="M 2.015625 -9.75 L 2.015625 -2.234375 C 2.015625 -1.878906 2.085938 -1.628906 2.234375 -1.484375 C 2.378906 -1.347656 2.570312 -1.28125 2.8125 -1.28125 C 3.050781 -1.28125 3.242188 -1.347656 3.390625 -1.484375 C 3.535156 -1.628906 3.609375 -1.878906 3.609375 -2.234375 L 3.609375 -9.75 L 5.046875 -9.75 L 5.046875 -2.328125 C 5.046875 -1.535156 4.851562 -0.925781 4.46875 -0.5 C 4.082031 -0.0820312 3.515625 0.125 2.765625 0.125 C 2.015625 0.125 1.445312 -0.0820312 1.0625 -0.5 C 0.675781 -0.925781 0.484375 -1.535156 0.484375 -2.328125 L 0.484375 -9.75 Z M 2.015625 -9.75 "/></g></g></g><g fill="#e5d3a6" fill-opacity="1"><g transform="translate(196.459347, 218.544742)"><g><path d="M 3.765625 0 C 3.742188 -0.0625 3.722656 -0.117188 3.703125 -0.171875 C 3.679688 -0.234375 3.664062 -0.304688 3.65625 -0.390625 C 3.644531 -0.472656 3.632812 -0.578125 3.625 -0.703125 C 3.625 -0.835938 3.625 -1.003906 3.625 -1.203125 L 3.625 -2.734375 C 3.625 -3.179688 3.539062 -3.5 3.375 -3.6875 C 3.21875 -3.875 2.96875 -3.96875 2.625 -3.96875 L 2.09375 -3.96875 L 2.09375 0 L 0.5625 0 L 0.5625 -9.75 L 2.875 -9.75 C 3.664062 -9.75 4.238281 -9.5625 4.59375 -9.1875 C 4.957031 -8.8125 5.140625 -8.25 5.140625 -7.5 L 5.140625 -6.734375 C 5.140625 -5.734375 4.804688 -5.078125 4.140625 -4.765625 C 4.523438 -4.609375 4.789062 -4.347656 4.9375 -3.984375 C 5.082031 -3.628906 5.15625 -3.195312 5.15625 -2.6875 L 5.15625 -1.1875 C 5.15625 -0.945312 5.160156 -0.734375 5.171875 -0.546875 C 5.191406 -0.367188 5.238281 -0.1875 5.3125 0 Z M 2.09375 -8.359375 L 2.09375 -5.359375 L 2.6875 -5.359375 C 2.976562 -5.359375 3.203125 -5.429688 3.359375 -5.578125 C 3.523438 -5.734375 3.609375 -6.003906 3.609375 -6.390625 L 3.609375 -7.34375 C 3.609375 -7.695312 3.546875 -7.953125 3.421875 -8.109375 C 3.296875 -8.273438 3.097656 -8.359375 2.828125 -8.359375 Z M 2.09375 -8.359375 "/></g></g></g><g fill="#e5d3a6" fill-opacity="1"><g transform="translate(202.055953, 218.544742)"><g><path d="M 2.09375 -5.640625 L 4.1875 -5.640625 L 4.1875 -4.25 L 2.09375 -4.25 L 2.09375 -1.390625 L 4.734375 -1.390625 L 4.734375 0 L 0.5625 0 L 0.5625 -9.75 L 4.734375 -9.75 L 4.734375 -8.359375 L 2.09375 -8.359375 Z M 2.09375 -5.640625 "/></g></g></g><g fill="#e5d3a6" fill-opacity="1"><g transform="translate(207.179221, 218.544742)"><g/></g></g><g fill="#e5d3a6" fill-opacity="1"><g transform="translate(209.337119, 218.544742)"><g><path d="M 0.109375 -9.75 L 4.84375 -9.75 L 4.84375 -8.359375 L 3.25 -8.359375 L 3.25 0 L 1.71875 0 L 1.71875 -8.359375 L 0.109375 -8.359375 Z M 0.109375 -9.75 "/></g></g></g><g fill="#e5d3a6" fill-opacity="1"><g transform="translate(214.293326, 218.544742)"><g><path d="M 2.09375 0 L 0.5625 0 L 0.5625 -9.75 L 2.09375 -9.75 L 2.09375 -5.5625 L 3.828125 -5.5625 L 3.828125 -9.75 L 5.390625 -9.75 L 5.390625 0 L 3.828125 0 L 3.828125 -4.171875 L 2.09375 -4.171875 Z M 2.09375 0 "/></g></g></g><g fill="#e5d3a6" fill-opacity="1"><g transform="translate(220.237982, 218.544742)"><g><path d="M 2.09375 -5.640625 L 4.1875 -5.640625 L 4.1875 -4.25 L 2.09375 -4.25 L 2.09375 -1.390625 L 4.734375 -1.390625 L 4.734375 0 L 0.5625 0 L 0.5625 -9.75 L 4.734375 -9.75 L 4.734375 -8.359375 L 2.09375 -8.359375 Z M 2.09375 -5.640625 "/></g></g></g><g fill="#e5d3a6" fill-opacity="1"><g transform="translate(225.36125, 218.544742)"><g/></g></g><g fill="#e5d3a6" fill-opacity="1"><g transform="translate(227.519148, 218.544742)"><g><path d="M 2.8125 -9.75 C 3.582031 -9.75 4.15625 -9.539062 4.53125 -9.125 C 4.90625 -8.71875 5.09375 -8.125 5.09375 -7.34375 L 5.09375 -6.0625 C 5.09375 -5.28125 4.90625 -4.679688 4.53125 -4.265625 C 4.15625 -3.859375 3.582031 -3.65625 2.8125 -3.65625 L 2.09375 -3.65625 L 2.09375 0 L 0.5625 0 L 0.5625 -9.75 Z M 2.09375 -8.359375 L 2.09375 -5.046875 L 2.8125 -5.046875 C 3.050781 -5.046875 3.234375 -5.109375 3.359375 -5.234375 C 3.492188 -5.367188 3.5625 -5.613281 3.5625 -5.96875 L 3.5625 -7.4375 C 3.5625 -7.789062 3.492188 -8.03125 3.359375 -8.15625 C 3.234375 -8.289062 3.050781 -8.359375 2.8125 -8.359375 Z M 2.09375 -8.359375 "/></g></g></g><g fill="#e5d3a6" fill-opacity="1"><g transform="translate(232.83732, 218.544742)"><g><path d="M 5.515625 0 L 3.96875 0 L 3.703125 -1.765625 L 1.828125 -1.765625 L 1.5625 0 L 0.15625 0 L 1.71875 -9.75 L 3.953125 -9.75 Z M 2.015625 -3.09375 L 3.5 -3.09375 L 2.75 -8.015625 Z M 2.015625 -3.09375 "/></g></g></g><g fill="#e5d3a6" fill-opacity="1"><g transform="translate(238.503541, 218.544742)"><g><path d="M 0.359375 -7.40625 C 0.359375 -8.195312 0.546875 -8.800781 0.921875 -9.21875 C 1.296875 -9.644531 1.863281 -9.859375 2.625 -9.859375 C 3.375 -9.859375 3.9375 -9.644531 4.3125 -9.21875 C 4.6875 -8.800781 4.875 -8.195312 4.875 -7.40625 L 4.875 -7.09375 L 3.421875 -7.09375 L 3.421875 -7.5 C 3.421875 -7.851562 3.351562 -8.101562 3.21875 -8.25 C 3.082031 -8.394531 2.894531 -8.46875 2.65625 -8.46875 C 2.414062 -8.46875 2.226562 -8.394531 2.09375 -8.25 C 1.957031 -8.101562 1.890625 -7.851562 1.890625 -7.5 C 1.890625 -7.164062 1.960938 -6.867188 2.109375 -6.609375 C 2.265625 -6.359375 2.453125 -6.117188 2.671875 -5.890625 C 2.890625 -5.671875 3.125 -5.445312 3.375 -5.21875 C 3.632812 -4.988281 3.875 -4.738281 4.09375 -4.46875 C 4.320312 -4.195312 4.507812 -3.890625 4.65625 -3.546875 C 4.8125 -3.203125 4.890625 -2.800781 4.890625 -2.34375 C 4.890625 -1.550781 4.695312 -0.941406 4.3125 -0.515625 C 3.925781 -0.0976562 3.359375 0.109375 2.609375 0.109375 C 1.847656 0.109375 1.273438 -0.0976562 0.890625 -0.515625 C 0.503906 -0.941406 0.3125 -1.550781 0.3125 -2.34375 L 0.3125 -2.9375 L 1.765625 -2.9375 L 1.765625 -2.234375 C 1.765625 -1.890625 1.835938 -1.644531 1.984375 -1.5 C 2.128906 -1.363281 2.320312 -1.296875 2.5625 -1.296875 C 2.800781 -1.296875 2.992188 -1.363281 3.140625 -1.5 C 3.285156 -1.644531 3.359375 -1.890625 3.359375 -2.234375 C 3.359375 -2.578125 3.28125 -2.875 3.125 -3.125 C 2.976562 -3.382812 2.789062 -3.625 2.5625 -3.84375 C 2.34375 -4.070312 2.101562 -4.300781 1.84375 -4.53125 C 1.59375 -4.757812 1.359375 -5.007812 1.140625 -5.28125 C 0.921875 -5.550781 0.734375 -5.851562 0.578125 -6.1875 C 0.429688 -6.53125 0.359375 -6.9375 0.359375 -7.40625 Z M 0.359375 -7.40625 "/></g></g></g><g fill="#e5d3a6" fill-opacity="1"><g transform="translate(243.710339, 218.544742)"><g><path d="M 0.109375 -9.75 L 4.84375 -9.75 L 4.84375 -8.359375 L 3.25 -8.359375 L 3.25 0 L 1.71875 0 L 1.71875 -8.359375 L 0.109375 -8.359375 Z M 0.109375 -9.75 "/></g></g></g><g fill="#e5d3a6" fill-opacity="1"><g transform="translate(248.666546, 218.544742)"><g><path d="M 0.5625 0 L 0.5625 -1.46875 L 2.03125 -1.46875 L 2.03125 -0.15625 L 1.359375 1.390625 L 0.734375 1.390625 L 1.140625 0 Z M 0.5625 0 "/></g></g></g><g fill="#e5d3a6" fill-opacity="1"><g transform="translate(251.256024, 218.544742)"><g/></g></g><g fill="#e5d3a6" fill-opacity="1"><g transform="translate(253.413921, 218.544742)"><g><path d="M 5 -3.640625 L 5 -2.34375 C 5 -1.550781 4.804688 -0.941406 4.421875 -0.515625 C 4.035156 -0.0976562 3.46875 0.109375 2.71875 0.109375 C 1.96875 0.109375 1.398438 -0.0976562 1.015625 -0.515625 C 0.628906 -0.941406 0.4375 -1.550781 0.4375 -2.34375 L 0.4375 -7.40625 C 0.4375 -8.195312 0.628906 -8.800781 1.015625 -9.21875 C 1.398438 -9.644531 1.96875 -9.859375 2.71875 -9.859375 C 3.46875 -9.859375 4.035156 -9.644531 4.421875 -9.21875 C 4.804688 -8.800781 5 -8.195312 5 -7.40625 L 5 -6.453125 L 3.546875 -6.453125 L 3.546875 -7.5 C 3.546875 -7.851562 3.472656 -8.101562 3.328125 -8.25 C 3.191406 -8.394531 3 -8.46875 2.75 -8.46875 C 2.507812 -8.46875 2.316406 -8.394531 2.171875 -8.25 C 2.035156 -8.101562 1.96875 -7.851562 1.96875 -7.5 L 1.96875 -2.234375 C 1.96875 -1.890625 2.035156 -1.644531 2.171875 -1.5 C 2.316406 -1.363281 2.507812 -1.296875 2.75 -1.296875 C 3 -1.296875 3.191406 -1.363281 3.328125 -1.5 C 3.472656 -1.644531 3.546875 -1.890625 3.546875 -2.234375 L 3.546875 -3.640625 Z M 5 -3.640625 "/></g></g></g><g fill="#e5d3a6" fill-opacity="1"><g transform="translate(258.78778, 218.544742)"><g><path d="M 3.765625 0 C 3.742188 -0.0625 3.722656 -0.117188 3.703125 -0.171875 C 3.679688 -0.234375 3.664062 -0.304688 3.65625 -0.390625 C 3.644531 -0.472656 3.632812 -0.578125 3.625 -0.703125 C 3.625 -0.835938 3.625 -1.003906 3.625 -1.203125 L 3.625 -2.734375 C 3.625 -3.179688 3.539062 -3.5 3.375 -3.6875 C 3.21875 -3.875 2.96875 -3.96875 2.625 -3.96875 L 2.09375 -3.96875 L 2.09375 0 L 0.5625 0 L 0.5625 -9.75 L 2.875 -9.75 C 3.664062 -9.75 4.238281 -9.5625 4.59375 -9.1875 C 4.957031 -8.8125 5.140625 -8.25 5.140625 -7.5 L 5.140625 -6.734375 C 5.140625 -5.734375 4.804688 -5.078125 4.140625 -4.765625 C 4.523438 -4.609375 4.789062 -4.347656 4.9375 -3.984375 C 5.082031 -3.628906 5.15625 -3.195312 5.15625 -2.6875 L 5.15625 -1.1875 C 5.15625 -0.945312 5.160156 -0.734375 5.171875 -0.546875 C 5.191406 -0.367188 5.238281 -0.1875 5.3125 0 Z M 2.09375 -8.359375 L 2.09375 -5.359375 L 2.6875 -5.359375 C 2.976562 -5.359375 3.203125 -5.429688 3.359375 -5.578125 C 3.523438 -5.734375 3.609375 -6.003906 3.609375 -6.390625 L 3.609375 -7.34375 C 3.609375 -7.695312 3.546875 -7.953125 3.421875 -8.109375 C 3.296875 -8.273438 3.097656 -8.359375 2.828125 -8.359375 Z M 2.09375 -8.359375 "/></g></g></g><g fill="#e5d3a6" fill-opacity="1"><g transform="translate(264.384387, 218.544742)"><g><path d="M 2.09375 -5.640625 L 4.1875 -5.640625 L 4.1875 -4.25 L 2.09375 -4.25 L 2.09375 -1.390625 L 4.734375 -1.390625 L 4.734375 0 L 0.5625 0 L 0.5625 -9.75 L 4.734375 -9.75 L 4.734375 -8.359375 L 2.09375 -8.359375 Z M 2.09375 -5.640625 "/></g></g></g><g fill="#e5d3a6" fill-opacity="1"><g transform="translate(269.507655, 218.544742)"><g><path d="M 5.515625 0 L 3.96875 0 L 3.703125 -1.765625 L 1.828125 -1.765625 L 1.5625 0 L 0.15625 0 L 1.71875 -9.75 L 3.953125 -9.75 Z M 2.015625 -3.09375 L 3.5 -3.09375 L 2.75 -8.015625 Z M 2.015625 -3.09375 "/></g></g></g><g fill="#e5d3a6" fill-opacity="1"><g transform="translate(275.173876, 218.544742)"><g><path d="M 0.109375 -9.75 L 4.84375 -9.75 L 4.84375 -8.359375 L 3.25 -8.359375 L 3.25 0 L 1.71875 0 L 1.71875 -8.359375 L 0.109375 -8.359375 Z M 0.109375 -9.75 "/></g></g></g><g fill="#e5d3a6" fill-opacity="1"><g transform="translate(280.130083, 218.544742)"><g><path d="M 2.09375 -5.640625 L 4.1875 -5.640625 L 4.1875 -4.25 L 2.09375 -4.25 L 2.09375 -1.390625 L 4.734375 -1.390625 L 4.734375 0 L 0.5625 0 L 0.5625 -9.75 L 4.734375 -9.75 L 4.734375 -8.359375 L 2.09375 -8.359375 Z M 2.09375 -5.640625 "/></g></g></g><g fill="#e5d3a6" fill-opacity="1"><g transform="translate(285.253351, 218.544742)"><g/></g></g><g fill="#e5d3a6" fill-opacity="1"><g transform="translate(287.411249, 218.544742)"><g><path d="M 0.109375 -9.75 L 4.84375 -9.75 L 4.84375 -8.359375 L 3.25 -8.359375 L 3.25 0 L 1.71875 0 L 1.71875 -8.359375 L 0.109375 -8.359375 Z M 0.109375 -9.75 "/></g></g></g><g fill="#e5d3a6" fill-opacity="1"><g transform="translate(292.367456, 218.544742)"><g><path d="M 2.09375 0 L 0.5625 0 L 0.5625 -9.75 L 2.09375 -9.75 L 2.09375 -5.5625 L 3.828125 -5.5625 L 3.828125 -9.75 L 5.390625 -9.75 L 5.390625 0 L 3.828125 0 L 3.828125 -4.171875 L 2.09375 -4.171875 Z M 2.09375 0 "/></g></g></g><g fill="#e5d3a6" fill-opacity="1"><g transform="translate(298.312112, 218.544742)"><g><path d="M 2.09375 -5.640625 L 4.1875 -5.640625 L 4.1875 -4.25 L 2.09375 -4.25 L 2.09375 -1.390625 L 4.734375 -1.390625 L 4.734375 0 L 0.5625 0 L 0.5625 -9.75 L 4.734375 -9.75 L 4.734375 -8.359375 L 2.09375 -8.359375 Z M 2.09375 -5.640625 "/></g></g></g><g fill="#e5d3a6" fill-opacity="1"><g transform="translate(303.43538, 218.544742)"><g/></g></g><g fill="#e5d3a6" fill-opacity="1"><g transform="translate(305.593278, 218.544742)"><g><path d="M 2.09375 -5.421875 L 4.0625 -5.421875 L 4.0625 -4.03125 L 2.09375 -4.03125 L 2.09375 0 L 0.5625 0 L 0.5625 -9.75 L 4.609375 -9.75 L 4.609375 -8.359375 L 2.09375 -8.359375 Z M 2.09375 -5.421875 "/></g></g></g><g fill="#e5d3a6" fill-opacity="1"><g transform="translate(310.382412, 218.544742)"><g><path d="M 2.015625 -9.75 L 2.015625 -2.234375 C 2.015625 -1.878906 2.085938 -1.628906 2.234375 -1.484375 C 2.378906 -1.347656 2.570312 -1.28125 2.8125 -1.28125 C 3.050781 -1.28125 3.242188 -1.347656 3.390625 -1.484375 C 3.535156 -1.628906 3.609375 -1.878906 3.609375 -2.234375 L 3.609375 -9.75 L 5.046875 -9.75 L 5.046875 -2.328125 C 5.046875 -1.535156 4.851562 -0.925781 4.46875 -0.5 C 4.082031 -0.0820312 3.515625 0.125 2.765625 0.125 C 2.015625 0.125 1.445312 -0.0820312 1.0625 -0.5 C 0.675781 -0.925781 0.484375 -1.535156 0.484375 -2.328125 L 0.484375 -9.75 Z M 2.015625 -9.75 "/></g></g></g><g fill="#e5d3a6" fill-opacity="1"><g transform="translate(315.923332, 218.544742)"><g><path d="M 0.109375 -9.75 L 4.84375 -9.75 L 4.84375 -8.359375 L 3.25 -8.359375 L 3.25 0 L 1.71875 0 L 1.71875 -8.359375 L 0.109375 -8.359375 Z M 0.109375 -9.75 "/></g></g></g><g fill="#e5d3a6" fill-opacity="1"><g transform="translate(320.879539, 218.544742)"><g><path d="M 2.015625 -9.75 L 2.015625 -2.234375 C 2.015625 -1.878906 2.085938 -1.628906 2.234375 -1.484375 C 2.378906 -1.347656 2.570312 -1.28125 2.8125 -1.28125 C 3.050781 -1.28125 3.242188 -1.347656 3.390625 -1.484375 C 3.535156 -1.628906 3.609375 -1.878906 3.609375 -2.234375 L 3.609375 -9.75 L 5.046875 -9.75 L 5.046875 -2.328125 C 5.046875 -1.535156 4.851562 -0.925781 4.46875 -0.5 C 4.082031 -0.0820312 3.515625 0.125 2.765625 0.125 C 2.015625 0.125 1.445312 -0.0820312 1.0625 -0.5 C 0.675781 -0.925781 0.484375 -1.535156 0.484375 -2.328125 L 0.484375 -9.75 Z M 2.015625 -9.75 "/></g></g></g><g fill="#e5d3a6" fill-opacity="1"><g transform="translate(326.420459, 218.544742)"><g><path d="M 3.765625 0 C 3.742188 -0.0625 3.722656 -0.117188 3.703125 -0.171875 C 3.679688 -0.234375 3.664062 -0.304688 3.65625 -0.390625 C 3.644531 -0.472656 3.632812 -0.578125 3.625 -0.703125 C 3.625 -0.835938 3.625 -1.003906 3.625 -1.203125 L 3.625 -2.734375 C 3.625 -3.179688 3.539062 -3.5 3.375 -3.6875 C 3.21875 -3.875 2.96875 -3.96875 2.625 -3.96875 L 2.09375 -3.96875 L 2.09375 0 L 0.5625 0 L 0.5625 -9.75 L 2.875 -9.75 C 3.664062 -9.75 4.238281 -9.5625 4.59375 -9.1875 C 4.957031 -8.8125 5.140625 -8.25 5.140625 -7.5 L 5.140625 -6.734375 C 5.140625 -5.734375 4.804688 -5.078125 4.140625 -4.765625 C 4.523438 -4.609375 4.789062 -4.347656 4.9375 -3.984375 C 5.082031 -3.628906 5.15625 -3.195312 5.15625 -2.6875 L 5.15625 -1.1875 C 5.15625 -0.945312 5.160156 -0.734375 5.171875 -0.546875 C 5.191406 -0.367188 5.238281 -0.1875 5.3125 0 Z M 2.09375 -8.359375 L 2.09375 -5.359375 L 2.6875 -5.359375 C 2.976562 -5.359375 3.203125 -5.429688 3.359375 -5.578125 C 3.523438 -5.734375 3.609375 -6.003906 3.609375 -6.390625 L 3.609375 -7.34375 C 3.609375 -7.695312 3.546875 -7.953125 3.421875 -8.109375 C 3.296875 -8.273438 3.097656 -8.359375 2.828125 -8.359375 Z M 2.09375 -8.359375 "/></g></g></g><g fill="#e5d3a6" fill-opacity="1"><g transform="translate(332.017066, 218.544742)"><g><path d="M 2.09375 -5.640625 L 4.1875 -5.640625 L 4.1875 -4.25 L 2.09375 -4.25 L 2.09375 -1.390625 L 4.734375 -1.390625 L 4.734375 0 L 0.5625 0 L 0.5625 -9.75 L 4.734375 -9.75 L 4.734375 -8.359375 L 2.09375 -8.359375 Z M 2.09375 -5.640625 "/></g></g></g></svg>