<svg xmlns="http://www.w3.org/2000/svg" width="500" height="500" version="1.0" viewBox="0 0 375 375"><defs><clipPath id="a"><path d="M57.293 170.68h81.648v49.168H57.293Zm0 0"/></clipPath><clipPath id="b"><path d="M79 162.402h39V173H79Zm0 0"/></clipPath><clipPath id="c"><path d="M57.293 179.148h81.648v31.797H57.293Zm0 0"/></clipPath><clipPath id="d"><path d="M37.5 151.578h32.25v48H37.5Zm0 0"/></clipPath><clipPath id="e"><path d="M126.477 151.578h32.039v48h-32.04Zm0 0"/></clipPath><clipPath id="f"><path d="M43 207h15v15H43Zm0 0"/></clipPath><clipPath id="g"><path d="m46.555 223.41-8.817-24.726 19.782-7.051 8.816 24.722Zm0 0"/></clipPath><clipPath id="h"><path d="m46.555 223.41-8.817-24.726 19.782-7.051 8.816 24.722Zm0 0"/></clipPath><clipPath id="i"><path d="M44 208h13v13H44Zm0 0"/></clipPath><clipPath id="j"><path d="m46.555 223.41-8.817-24.726 19.782-7.051 8.816 24.722Zm0 0"/></clipPath><clipPath id="k"><path d="m46.555 223.41-8.817-24.726 19.782-7.051 8.816 24.722Zm0 0"/></clipPath><clipPath id="l"><path d="M41 196h13v12H41Zm0 0"/></clipPath><clipPath id="m"><path d="m46.555 223.41-8.817-24.726 19.782-7.051 8.816 24.722Zm0 0"/></clipPath><clipPath id="n"><path d="m46.555 223.41-8.817-24.726 19.782-7.051 8.816 24.722Zm0 0"/></clipPath><clipPath id="o"><path d="M42 197h10v10H42Zm0 0"/></clipPath><clipPath id="p"><path d="m46.555 223.41-8.817-24.726 19.782-7.051 8.816 24.722Zm0 0"/></clipPath><clipPath id="q"><path d="m46.555 223.41-8.817-24.726 19.782-7.051 8.816 24.722Zm0 0"/></clipPath><clipPath id="r"><path d="M57 207h8v8h-8Zm0 0"/></clipPath><clipPath id="s"><path d="m46.555 223.41-8.817-24.726 19.782-7.051 8.816 24.722Zm0 0"/></clipPath><clipPath id="t"><path d="m46.555 223.41-8.817-24.726 19.782-7.051 8.816 24.722Zm0 0"/></clipPath><clipPath id="u"><path d="M59 208h5v6h-5Zm0 0"/></clipPath><clipPath id="v"><path d="m46.555 223.41-8.817-24.726 19.782-7.051 8.816 24.722Zm0 0"/></clipPath><clipPath id="w"><path d="m46.555 223.41-8.817-24.726 19.782-7.051 8.816 24.722Zm0 0"/></clipPath><clipPath id="x"><path d="M53 200h9v9h-9Zm0 0"/></clipPath><clipPath id="y"><path d="m46.555 223.41-8.817-24.726 19.782-7.051 8.816 24.722Zm0 0"/></clipPath><clipPath id="z"><path d="m46.555 223.41-8.817-24.726 19.782-7.051 8.816 24.722Zm0 0"/></clipPath><clipPath id="A"><path d="M55 201h6v7h-6Zm0 0"/></clipPath><clipPath id="B"><path d="m46.555 223.41-8.817-24.726 19.782-7.051 8.816 24.722Zm0 0"/></clipPath><clipPath id="C"><path d="m46.555 223.41-8.817-24.726 19.782-7.051 8.816 24.722Zm0 0"/></clipPath><clipPath id="D"><path d="M44 208h13v13H44Zm0 0"/></clipPath><clipPath id="E"><path d="m46.555 223.41-8.817-24.726 19.782-7.051 8.816 24.722Zm0 0"/></clipPath><clipPath id="F"><path d="m46.555 223.41-8.817-24.726 19.782-7.051 8.816 24.722Zm0 0"/></clipPath><clipPath id="G"><path d="M42 197h10v10H42Zm0 0"/></clipPath><clipPath id="H"><path d="m46.555 223.41-8.817-24.726 19.782-7.051 8.816 24.722Zm0 0"/></clipPath><clipPath id="I"><path d="m46.555 223.41-8.817-24.726 19.782-7.051 8.816 24.722Zm0 0"/></clipPath><clipPath id="J"><path d="M59 208h5v6h-5Zm0 0"/></clipPath><clipPath id="K"><path d="m46.555 223.41-8.817-24.726 19.782-7.051 8.816 24.722Zm0 0"/></clipPath><clipPath id="L"><path d="m46.555 223.41-8.817-24.726 19.782-7.051 8.816 24.722Zm0 0"/></clipPath><clipPath id="M"><path d="M55 201h6v7h-6Zm0 0"/></clipPath><clipPath id="N"><path d="m46.555 223.41-8.817-24.726 19.782-7.051 8.816 24.722Zm0 0"/></clipPath><clipPath id="O"><path d="m46.555 223.41-8.817-24.726 19.782-7.051 8.816 24.722Zm0 0"/></clipPath><clipPath id="P"><path d="M138 207h15v15h-15Zm0 0"/></clipPath><clipPath id="Q"><path d="m158.594 198.383-8.828 24.722-19.774-7.062 8.824-24.723Zm0 0"/></clipPath><clipPath id="R"><path d="m149.656 223.414 8.828-24.723-19.777-7.062-8.828 24.723Zm0 0"/></clipPath><clipPath id="S"><path d="M139 208h13v13h-13Zm0 0"/></clipPath><clipPath id="T"><path d="m158.594 198.383-8.828 24.722-19.774-7.062 8.824-24.723Zm0 0"/></clipPath><clipPath id="U"><path d="m149.656 223.414 8.828-24.723-19.777-7.062-8.828 24.723Zm0 0"/></clipPath><clipPath id="V"><path d="M143 196h12v12h-12Zm0 0"/></clipPath><clipPath id="W"><path d="m158.594 198.383-8.828 24.722-19.774-7.062 8.824-24.723Zm0 0"/></clipPath><clipPath id="X"><path d="m149.656 223.414 8.828-24.723-19.777-7.062-8.828 24.723Zm0 0"/></clipPath><clipPath id="Y"><path d="M144 197h10v10h-10Zm0 0"/></clipPath><clipPath id="Z"><path d="m158.594 198.383-8.828 24.722-19.774-7.062 8.824-24.723Zm0 0"/></clipPath><clipPath id="aa"><path d="m149.656 223.414 8.828-24.723-19.777-7.062-8.828 24.723Zm0 0"/></clipPath><clipPath id="ab"><path d="M131 207h8v8h-8Zm0 0"/></clipPath><clipPath id="ac"><path d="m158.594 198.383-8.828 24.722-19.774-7.062 8.824-24.723Zm0 0"/></clipPath><clipPath id="ad"><path d="m149.656 223.414 8.828-24.723-19.777-7.062-8.828 24.723Zm0 0"/></clipPath><clipPath id="ae"><path d="M132 208h6v6h-6Zm0 0"/></clipPath><clipPath id="af"><path d="m158.594 198.383-8.828 24.722-19.774-7.062 8.824-24.723Zm0 0"/></clipPath><clipPath id="ag"><path d="m149.656 223.414 8.828-24.723-19.777-7.062-8.828 24.723Zm0 0"/></clipPath><clipPath id="ah"><path d="M134 200h9v9h-9Zm0 0"/></clipPath><clipPath id="ai"><path d="m158.594 198.383-8.828 24.722-19.774-7.062 8.824-24.723Zm0 0"/></clipPath><clipPath id="aj"><path d="m149.656 223.414 8.828-24.723-19.777-7.062-8.828 24.723Zm0 0"/></clipPath><clipPath id="ak"><path d="M135 201h7v7h-7Zm0 0"/></clipPath><clipPath id="al"><path d="m158.594 198.383-8.828 24.722-19.774-7.062 8.824-24.723Zm0 0"/></clipPath><clipPath id="am"><path d="m149.656 223.414 8.828-24.723-19.777-7.062-8.828 24.723Zm0 0"/></clipPath><clipPath id="an"><path d="M139 208h13v13h-13Zm0 0"/></clipPath><clipPath id="ao"><path d="m158.594 198.383-8.828 24.722-19.774-7.062 8.824-24.723Zm0 0"/></clipPath><clipPath id="ap"><path d="m149.656 223.414 8.828-24.723-19.777-7.062-8.828 24.723Zm0 0"/></clipPath><clipPath id="aq"><path d="M144 197h10v10h-10Zm0 0"/></clipPath><clipPath id="ar"><path d="m158.594 198.383-8.828 24.722-19.774-7.062 8.824-24.723Zm0 0"/></clipPath><clipPath id="as"><path d="m149.656 223.414 8.828-24.723-19.777-7.062-8.828 24.723Zm0 0"/></clipPath><clipPath id="at"><path d="M132 208h6v6h-6Zm0 0"/></clipPath><clipPath id="au"><path d="m158.594 198.383-8.828 24.722-19.774-7.062 8.824-24.723Zm0 0"/></clipPath><clipPath id="av"><path d="m149.656 223.414 8.828-24.723-19.777-7.062-8.828 24.723Zm0 0"/></clipPath><clipPath id="aw"><path d="M135 201h7v7h-7Zm0 0"/></clipPath><clipPath id="ax"><path d="m158.594 198.383-8.828 24.722-19.774-7.062 8.824-24.723Zm0 0"/></clipPath><clipPath id="ay"><path d="m149.656 223.414 8.828-24.723-19.777-7.062-8.828 24.723Zm0 0"/></clipPath></defs><g clip-path="url(#a)"><path fill="#e5d3a6" d="M61.469 172.133a2.746 2.746 0 0 0-2.742 2.742v40.797a2.746 2.746 0 0 0 2.742 2.742h73.297a2.743 2.743 0 0 0 2.742-2.742v-40.797a2.743 2.743 0 0 0-2.742-2.742Zm73.297 47.715H61.469a4.183 4.183 0 0 1-4.176-4.176v-40.797a4.18 4.18 0 0 1 4.176-4.176h73.297a4.178 4.178 0 0 1 4.175 4.176v40.797a4.18 4.18 0 0 1-4.175 4.176"/></g><g clip-path="url(#b)"><path fill="#e5d3a6" d="M81.34 170.7h34.105l-5.902-6.864H86.77Zm35.664 1.433H79.859a.71.71 0 0 1-.64-.403.712.712 0 0 1 .082-.757l6.558-8.297a.72.72 0 0 1 .563-.274h23.45c.21 0 .41.09.542.25l7.133 8.297c.183.211.226.512.11.766a.719.719 0 0 1-.653.418"/></g><path fill="#e5d3a6" d="M64.957 170.7H76.32v-1.704c0-.937-.765-1.703-1.703-1.703h-7.953c-.941 0-1.707.766-1.707 1.703Zm12.078 1.433H64.242a.716.716 0 0 1-.715-.719v-2.418a3.14 3.14 0 0 1 3.137-3.137h7.953a3.14 3.14 0 0 1 3.137 3.137v2.418c0 .399-.32.719-.719.719M98.117 175.934c-10.664 0-19.336 8.675-19.336 19.34 0 10.66 8.672 19.34 19.336 19.34 10.664 0 19.34-8.68 19.34-19.34 0-10.665-8.676-19.34-19.34-19.34Zm0 40.109c-11.453 0-20.77-9.316-20.77-20.77 0-11.453 9.317-20.773 20.77-20.773s20.77 9.32 20.77 20.773c0 11.454-9.317 20.77-20.77 20.77"/><path fill="#e5d3a6" d="M98.117 180.43c-8.183 0-14.84 6.66-14.84 14.843 0 8.184 6.657 14.844 14.84 14.844 8.184 0 14.844-6.66 14.844-14.844 0-8.183-6.66-14.843-14.844-14.843Zm0 31.117c-8.972 0-16.273-7.3-16.273-16.274 0-8.976 7.3-16.273 16.273-16.273 8.973 0 16.278 7.297 16.278 16.273 0 8.973-7.305 16.274-16.278 16.274"/><g clip-path="url(#c)"><path fill="#e5d3a6" d="M85.281 180.582h-27.27a.716.716 0 1 1 0-1.434h27.27a.716.716 0 0 1 0 1.434Zm52.946 0h-27.27a.713.713 0 0 1-.715-.715c0-.398.317-.719.715-.719h27.27a.716.716 0 0 1 0 1.434Zm-53.59 30.254H58.012a.716.716 0 1 1 0-1.434h26.625c.394 0 .715.325.715.72 0 .394-.32.714-.715.714Zm53.59 0h-26.63a.715.715 0 0 1-.714-.715c0-.394.32-.719.715-.719h26.629c.394 0 .714.325.714.72 0 .394-.32.714-.714.714"/></g><path fill="#e5d3a6" d="M121.707 180.582a.713.713 0 0 1-.715-.715v-8.453c0-.394.317-.715.715-.715.395 0 .719.32.719.715v8.453a.719.719 0 0 1-.719.715M127.371 174.8a.841.841 0 0 0 0 1.68h5.188c.46 0 .843-.375.843-.84 0-.46-.382-.84-.843-.84Zm5.188 3.114h-5.188a2.271 2.271 0 0 1 0-4.543h5.188a2.272 2.272 0 0 1 0 4.543"/><g clip-path="url(#d)"><path fill="#e5d3a6" fill-rule="evenodd" d="M44.082 190.754c0-1.418.121-2.742-.043-4.027-.098-.77-.61-1.504-1-2.215-.113-.207-.441-.352-.7-.414-2.444-.598-3.464-2.442-4.07-4.641-.074-.266-.062-.566-.042-.848.058-.875.722-1.254 1.488-.933.785.328 1.515.691 1.937 1.43.489.859.93 1.757 1.278 2.683.293.774.547 1.54 1.265 2.2.094-.302.192-.544.239-.794.144-.77.254-1.547.402-2.316.289-1.52-.695-3.45-2.148-3.969-1.786-.64-2.56-2.055-3.063-3.719-.059-.199-.059-.421-.055-.636.02-1.239.489-1.567 1.676-1.282 1.324.317 2.23 1.102 2.7 2.352.261.695.538 1.438.538 2.16-.004.89.426 1.453.98 2.117.548-1.511 1.075-2.937 1.567-4.379.074-.214.028-.488-.011-.73-.075-.457-.211-.902-.27-1.36-.133-1.042-.527-1.769-1.57-2.292-1.582-.801-2.149-2.848-1.383-4.45.32-.664.766-1.289 1.254-1.847.574-.653 1.129-.578 1.52.183.484.953.94 1.926 1.3 2.93.328.918.45 1.926-.004 2.82-.426.844-.203 1.563.102 2.543.297-.547.504-.937.715-1.324.363-.652.648-1.371 1.109-1.945.832-1.035.883-2.2.816-3.414-.02-.356-.058-.715-.05-1.07.007-.41-.118-.72-.407-1.047-1.629-1.856-1.414-4.836.434-6.45.75-.652 1.289-.539 1.59.41.312.985.578 1.985.793 2.993.215.988.043 1.984-.614 2.73-.652.738-.695 1.5-.527 2.48.211-.195.39-.331.527-.503.504-.602.954-1.254 1.493-1.82.515-.544.761-1.145.879-1.883.117-.762.168-1.418-.34-2.098-.278-.367-.356-.934-.387-1.422-.137-1.953 1.25-4.2 3.043-5.02.781-.359 1.223-.175 1.254.653a30.287 30.287 0 0 1-.074 3.62c-.078.958-.555 1.74-1.407 2.282-.586.38-.562.418-.738 1.336.25-.168.442-.273.606-.41.66-.547 1.289-1.129 1.968-1.648.985-.75 1.875-1.508 2.563-2.625 1.43-2.32 4.87-3.438 7.476-2.672.137.039.274.086.399.148.715.344.883.867.355 1.445-1.16 1.262-2.375 2.48-3.93 3.262-1.132.567-2.324.656-3.53.227-.352-.125-.65-.2-1 .039a30.71 30.71 0 0 0-5.333 4.62c.993.231 1.114.224 1.653-.44 1.086-1.333 2.488-1.883 4.168-1.684.808.097 1.613.281 2.406.48.332.082.668.266.934.485.515.43.554.972.027 1.363-1.375 1.023-2.793 1.988-4.524 2.328-.91.18-1.73-.07-2.398-.64-.86-.731-1.754-.657-2.703-.325-.922.324-1.719.813-2.266 1.68-.68 1.078-1.418 2.121-2.258 3.371.907-.144 1.547-.195 1.973-.887.555-.902 1.492-1.187 2.465-1.316 1.473-.191 2.918.004 4.336.422.2.058.402.152.57.277.52.39.594.973.086 1.352-1.2.902-2.43 1.777-3.902 2.172-1.137.304-2.235.078-3.133-.657-.602-.496-1.121-.468-1.762-.199-1.058.441-1.906 1.066-2.34 2.191-.52 1.352-1.101 2.684-1.57 4.083 1.29-.567 2.555-1.06 3.547-2.07 1.281-1.305 2.852-1.49 4.55-.997 1.051.305 1.278.82.665 1.715-1.04 1.512-2.317 2.672-4.324 2.387-.723-.102-1.418-.41-2.356-.692-.957.352-1.902 1.145-2.75 2.07a1.259 1.259 0 0 0-.277.57c-.305 1.423-.59 2.849-.782 4.337.758-.418 1.45-.848 1.997-1.488.347-.407.726-.782 1.109-1.157 1.34-1.297 2.883-1.222 4.48-.625.633.239.829.692.5 1.282-.78 1.414-1.906 2.43-3.601 2.511-.875.043-1.758-.101-2.84-.172l-.719.621c-.914.793-1.414 1.731-1.297 3 .137 1.45.164 2.915.254 4.372.016.265.117.523.203.902.559-.64 1.04-1.16 1.485-1.711.12-.145.18-.379.191-.574.14-1.973 1.274-3.348 2.692-4.555.109-.09.242-.152.37-.215 1.145-.547 1.794-.12 1.739 1.156-.05 1.192-.441 2.235-1.387 3.012-.496.406-.976.863-1.543 1.14-1.547.763-2.351 2.126-3.05 3.579-.106.223-.063.566.02.82.288.918.62 1.82.937 2.73.082.235.253.473.234.7-.023.238-.172.543-.363.664-.13.082-.489-.047-.633-.191-.195-.188-.317-.477-.403-.743-.476-1.492-.98-2.976-1.37-4.492-.391-1.515-1.426-2.515-2.544-3.46-.16-.137-.476-.067-.707-.137-.504-.153-1.074-.23-1.484-.524-1.105-.785-1.863-1.86-2.2-3.191-.253-1.012.114-1.375 1.173-1.262 1.914.207 3.21 1.191 3.633 3.082.203.91.644 1.54 1.519 2.09Zm17.945-34.5c1.496 1.035 4.008.039 5.86-2.57-2.13-.59-4.848.586-5.86 2.57Zm-3.91 6.719c.543.23 1.004.53 1.5.613.996.164 3.113-.938 3.742-1.844-2.293-.785-4.293-.617-5.242 1.23Zm.418 5.18c-2.437-.72-4.254-.395-5.023.863 1.136 1.289 3.035.941 5.023-.864Zm-11.762.304c.344-1.516.016-2.773-1.093-4.309-1.63 1.7-1.16 3.676 1.093 4.309Zm8.786-10.648c1.492-.606 2.074-2.368 1.402-4.239-1.426.844-2.086 2.84-1.402 4.239Zm-4.375-.457c-1.215 1.414-1.114 3.46.129 4.39 1.027-1.457.296-2.82-.13-4.39Zm-.082 18.414c1.187.785 3.109.175 3.773-1.356-1.484-.57-2.723-.125-3.773 1.356Zm-10.192-3.262c.028 1.676 1.05 2.988 2.297 3.016-.102-1.727-.785-2.653-2.297-3.016Zm7.813 10.262c1.566.32 2.797.004 3.66-1.336-1.184-.758-2.719-.153-3.66 1.336Zm-9.141-3.739c.02 1.418 1.02 2.977 2.148 3.352.06-1.379-.953-2.961-2.148-3.352Zm1.906 10.336c-.328-1.758-1.093-2.472-2.394-2.3.57.968 1.09 1.91 2.394 2.3Zm7.364.414c1.03-.629 2.125-1.226 2.066-2.859-1.082.8-1.688 1.742-2.066 2.86Zm0 0"/></g><g clip-path="url(#e)"><path fill="#e5d3a6" fill-rule="evenodd" d="M152.145 190.754c0-1.418-.122-2.742.042-4.027.102-.77.61-1.504 1.004-2.215.114-.207.442-.352.696-.414 2.445-.598 3.465-2.442 4.07-4.641.074-.266.063-.566.043-.848-.059-.875-.723-1.254-1.488-.933-.782.328-1.516.691-1.934 1.43-.492.859-.933 1.757-1.281 2.683-.29.774-.547 1.54-1.266 2.2-.094-.302-.191-.544-.238-.794-.145-.77-.254-1.547-.398-2.316-.29-1.52.69-3.45 2.144-3.969 1.785-.64 2.559-2.055 3.063-3.719.058-.199.058-.421.054-.636-.02-1.239-.488-1.567-1.676-1.282-1.324.317-2.23 1.102-2.699 2.352-.261.695-.539 1.438-.535 2.16.004.89-.426 1.453-.984 2.117-.547-1.511-1.07-2.937-1.567-4.379-.074-.214-.023-.488.012-.73.074-.457.215-.902.27-1.36.136-1.042.53-1.769 1.57-2.292 1.582-.801 2.148-2.848 1.383-4.45-.32-.664-.766-1.289-1.254-1.847-.574-.653-1.13-.578-1.52.183-.484.953-.941 1.926-1.3 2.93-.329.918-.45 1.926.003 2.82.426.844.203 1.563-.101 2.543-.293-.547-.504-.937-.715-1.324-.363-.652-.648-1.371-1.11-1.945-.831-1.035-.882-2.2-.816-3.414.02-.356.059-.715.051-1.07-.008-.41.121-.72.406-1.047 1.63-1.856 1.414-4.836-.433-6.45-.75-.652-1.29-.539-1.59.41a33.073 33.073 0 0 0-.793 2.993c-.215.988-.043 1.984.613 2.73.656.738.7 1.5.527 2.48-.21-.195-.386-.331-.527-.503-.5-.602-.953-1.254-1.492-1.82-.516-.544-.762-1.145-.875-1.883-.121-.762-.168-1.418.34-2.098.273-.367.351-.934.386-1.422.133-1.953-1.253-4.2-3.046-5.02-.782-.359-1.223-.175-1.254.653a30.287 30.287 0 0 0 .074 3.62c.078.958.555 1.74 1.406 2.282.59.38.563.418.738 1.336-.25-.168-.437-.273-.605-.41-.656-.547-1.29-1.129-1.969-1.648-.984-.75-1.875-1.508-2.558-2.625-1.434-2.32-4.875-3.438-7.48-2.672-.134.039-.27.086-.4.148-.714.344-.878.867-.355 1.445 1.16 1.262 2.375 2.48 3.93 3.262 1.133.567 2.328.656 3.531.227.352-.125.649-.2 1 .039a30.567 30.567 0 0 1 5.332 4.62c-.992.231-1.11.224-1.652-.44-1.086-1.333-2.484-1.883-4.168-1.684-.809.097-1.613.281-2.402.48a2.443 2.443 0 0 0-.938.485c-.516.43-.555.972-.023 1.363 1.37 1.023 2.789 1.988 4.523 2.328.906.18 1.727-.07 2.399-.64.855-.731 1.75-.657 2.699-.325.925.324 1.718.813 2.265 1.68.68 1.078 1.418 2.121 2.262 3.371-.91-.144-1.55-.195-1.976-.887-.555-.902-1.493-1.187-2.465-1.316-1.473-.191-2.918.004-4.332.422a1.82 1.82 0 0 0-.575.277c-.52.39-.593.973-.082 1.352 1.196.902 2.43 1.777 3.903 2.172 1.133.304 2.234.078 3.129-.657.601-.496 1.12-.468 1.761-.199 1.059.441 1.91 1.066 2.34 2.191.524 1.352 1.102 2.684 1.57 4.083-1.289-.567-2.554-1.06-3.542-2.07-1.286-1.305-2.856-1.49-4.555-.997-1.05.305-1.274.82-.66 1.715 1.035 1.512 2.312 2.672 4.324 2.387.719-.102 1.414-.41 2.351-.692.958.352 1.903 1.145 2.75 2.07.137.149.235.368.278.57.304 1.423.59 2.849.781 4.337-.754-.418-1.45-.848-1.996-1.488a18.218 18.218 0 0 0-1.11-1.157c-1.335-1.297-2.882-1.222-4.48-.625-.633.239-.828.692-.5 1.282.785 1.414 1.906 2.43 3.602 2.511.875.043 1.757-.101 2.843-.172.13.114.422.368.715.621.914.793 1.414 1.731 1.297 3-.137 1.45-.164 2.915-.254 4.372-.015.265-.113.523-.203.902-.558-.64-1.039-1.16-1.484-1.711-.121-.145-.18-.379-.192-.574-.136-1.973-1.273-3.348-2.691-4.555-.11-.09-.242-.152-.371-.215-1.145-.547-1.793-.12-1.738 1.156.05 1.192.441 2.235 1.39 3.012.492.406.977.863 1.54 1.14 1.546.763 2.355 2.126 3.05 3.579.106.223.063.566-.016.82-.289.918-.625 1.82-.941 2.73-.082.235-.254.473-.234.7.023.238.172.543.363.664.129.082.488-.047.637-.191.191-.188.316-.477.398-.743.477-1.492.98-2.976 1.371-4.492.395-1.515 1.426-2.515 2.547-3.46.16-.137.473-.067.703-.137.504-.153 1.074-.23 1.485-.524 1.105-.785 1.863-1.86 2.199-3.191.254-1.012-.11-1.375-1.168-1.262-1.918.207-3.215 1.191-3.637 3.082-.203.91-.64 1.54-1.52 2.09Zm-17.946-34.5c-1.492 1.035-4.008.039-5.86-2.57 2.13-.59 4.849.586 5.86 2.57Zm3.91 6.719c-.543.23-1.004.53-1.5.613-.996.164-3.113-.938-3.742-1.844 2.293-.785 4.297-.617 5.242 1.23Zm-.418 5.18c2.438-.72 4.254-.395 5.024.863-1.137 1.289-3.031.941-5.024-.864Zm11.766.304c-.348-1.516-.02-2.773 1.09-4.309 1.629 1.7 1.16 3.676-1.09 4.309Zm-8.785-10.648c-1.496-.606-2.078-2.368-1.406-4.239 1.425.844 2.09 2.84 1.406 4.239Zm4.371-.457c1.215 1.414 1.113 3.46-.129 4.39-1.027-1.457-.297-2.82.129-4.39Zm.082 18.414c-1.188.785-3.105.175-3.773-1.356 1.484-.57 2.722-.125 3.773 1.356Zm10.191-3.262c-.027 1.676-1.05 2.988-2.296 3.016.101-1.727.785-2.653 2.296-3.016Zm-7.812 10.262c-1.566.32-2.797.004-3.66-1.336 1.183-.758 2.719-.153 3.66 1.336Zm9.14-3.739c-.019 1.418-1.019 2.977-2.148 3.352-.059-1.379.957-2.961 2.149-3.352Zm-1.902 10.336c.324-1.758 1.09-2.472 2.39-2.3-.57.968-1.089 1.91-2.39 2.3Zm-7.367.414c-1.031-.629-2.121-1.226-2.066-2.859 1.082.8 1.687 1.742 2.066 2.86Zm0 0"/></g><g clip-path="url(#f)"><g clip-path="url(#g)"><g clip-path="url(#h)"><path fill="#e5d3a6" d="M57.36 212.066a7.01 7.01 0 0 1-.36 5.532 6.937 6.937 0 0 1-4.074 3.472 6.946 6.946 0 0 1-5.336-.425 6.956 6.956 0 0 1-3.403-3.88 7.011 7.011 0 0 1 .36-5.53 6.937 6.937 0 0 1 4.074-3.473 6.964 6.964 0 0 1 5.336.425 6.969 6.969 0 0 1 3.402 3.88Zm0 0"/></g></g></g><g clip-path="url(#i)"><g clip-path="url(#j)"><g clip-path="url(#k)"><path fill="#e5d3a6" d="M45.563 211.754a5.857 5.857 0 0 0 2.546 7.875 5.85 5.85 0 1 0-2.547-7.875Zm0 0"/></g></g></g><g clip-path="url(#l)"><g clip-path="url(#m)"><g clip-path="url(#n)"><path fill="#e5d3a6" d="M52.734 199.773a5.614 5.614 0 0 1-10.574 3.777 5.624 5.624 0 0 1 1.418-5.952c2.238-2.137 5.797-2.047 7.934.191a5.59 5.59 0 0 1 1.222 1.984Zm0 0"/></g></g></g><g clip-path="url(#o)"><g clip-path="url(#p)"><g clip-path="url(#q)"><path fill="#e5d3a6" d="M50.684 198.578a4.473 4.473 0 0 0-6.32-.152 4.468 4.468 0 0 0-.153 6.316 4.473 4.473 0 0 0 6.32.156 4.473 4.473 0 0 0 .153-6.32Zm0 0"/></g></g></g><g clip-path="url(#r)"><g clip-path="url(#s)"><g clip-path="url(#t)"><path fill="#e5d3a6" d="M64.191 209.969a3.251 3.251 0 0 1-5.414 3.34 3.277 3.277 0 0 1-.71-1.149 3.26 3.26 0 0 1 .82-3.45 3.256 3.256 0 0 1 4.597.11c.317.332.555.72.707 1.149Zm0 0"/></g></g></g><g clip-path="url(#u)"><g clip-path="url(#v)"><g clip-path="url(#w)"><path fill="#e5d3a6" d="M59.602 212.52a2.11 2.11 0 0 0 3.054-2.91 2.11 2.11 0 1 0-3.054 2.91Zm0 0"/></g></g></g><g clip-path="url(#x)"><g clip-path="url(#y)"><g clip-path="url(#z)"><path fill="#e5d3a6" d="M61.434 203.25a3.846 3.846 0 0 1-.965 4.066 3.836 3.836 0 0 1-6.254-1.488 3.838 3.838 0 0 1 .965-4.062 3.84 3.84 0 0 1 5.418.129c.375.394.656.851.836 1.355Zm0 0"/></g></g></g><g clip-path="url(#A)"><g clip-path="url(#B)"><g clip-path="url(#C)"><path fill="#e5d3a6" d="M59.773 202.684a2.694 2.694 0 0 0-3.804-.09 2.69 2.69 0 1 0 3.805.09Zm0 0"/></g></g></g><g clip-path="url(#D)"><g clip-path="url(#E)"><g clip-path="url(#F)"><path fill="#3e303f" d="M53.434 209.207a5.854 5.854 0 0 0-7.871 2.547 5.857 5.857 0 0 0 2.546 7.875 5.85 5.85 0 1 0 5.324-10.422Zm-4.618 8.36a3.388 3.388 0 0 1-1.472-4.56 3.385 3.385 0 0 1 4.554-1.472 3.386 3.386 0 1 1-3.082 6.031Zm0 0"/></g></g></g><g clip-path="url(#G)"><g clip-path="url(#H)"><g clip-path="url(#I)"><path fill="#3e303f" d="M50.531 204.898a4.473 4.473 0 0 0 .153-6.32 4.473 4.473 0 0 0-6.32-.152 4.468 4.468 0 0 0-.153 6.316 4.473 4.473 0 0 0 6.32.156Zm-1.777-1.527c-.762.727-1.969.7-2.695-.062a1.91 1.91 0 0 1 .066-2.696 1.905 1.905 0 0 1 2.629 2.758Zm0 0"/></g></g></g><g clip-path="url(#J)"><g clip-path="url(#K)"><g clip-path="url(#L)"><path fill="#3e303f" d="M62.656 209.61a2.11 2.11 0 1 0-3.055 2.91 2.11 2.11 0 0 0 3.055-2.91Zm0 0"/></g></g></g><g clip-path="url(#M)"><g clip-path="url(#N)"><g clip-path="url(#O)"><path fill="#3e303f" d="M55.879 206.395a2.69 2.69 0 1 0 3.895-3.711 2.69 2.69 0 0 0-3.895 3.71Zm0 0"/></g></g></g><g clip-path="url(#P)"><g clip-path="url(#Q)"><g clip-path="url(#R)"><path fill="#e5d3a6" d="M138.86 212.063a7.02 7.02 0 0 0 .355 5.535 6.95 6.95 0 0 0 4.074 3.472 6.99 6.99 0 0 0 8.383-9.832 6.937 6.937 0 0 0-4.074-3.472 6.934 6.934 0 0 0-5.332.422 6.966 6.966 0 0 0-3.407 3.875Zm0 0"/></g></g></g><g clip-path="url(#S)"><g clip-path="url(#T)"><g clip-path="url(#U)"><path fill="#e5d3a6" d="M150.656 211.758a5.853 5.853 0 0 1-2.55 7.87 5.853 5.853 0 0 1-7.872-2.55 5.846 5.846 0 0 1 2.551-7.871 5.852 5.852 0 0 1 7.871 2.55Zm0 0"/></g></g></g><g clip-path="url(#V)"><g clip-path="url(#W)"><g clip-path="url(#X)"><path fill="#e5d3a6" d="M143.488 199.773a5.625 5.625 0 0 0 1.414 5.95c2.239 2.136 5.801 2.05 7.938-.188a5.62 5.62 0 0 0-.191-7.934c-2.239-2.136-5.801-2.05-7.938.188a5.59 5.59 0 0 0-1.223 1.984Zm0 0"/></g></g></g><g clip-path="url(#Y)"><g clip-path="url(#Z)"><g clip-path="url(#aa)"><path fill="#e5d3a6" d="M145.54 198.578a4.473 4.473 0 0 1 6.32-.152 4.476 4.476 0 0 1 .152 6.32 4.473 4.473 0 0 1-6.32.152 4.473 4.473 0 0 1-.153-6.32Zm0 0"/></g></g></g><g clip-path="url(#ab)"><g clip-path="url(#ac)"><g clip-path="url(#ad)"><path fill="#e5d3a6" d="M132.027 209.965a3.251 3.251 0 1 0 6.122 2.193 3.251 3.251 0 0 0-6.122-2.193Zm0 0"/></g></g></g><g clip-path="url(#ae)"><g clip-path="url(#af)"><g clip-path="url(#ag)"><path fill="#e5d3a6" d="M136.613 212.516a2.106 2.106 0 0 1-2.98.07 2.106 2.106 0 0 1-.07-2.98 2.106 2.106 0 0 1 2.98-.07c.844.8.875 2.136.07 2.98Zm0 0"/></g></g></g><g clip-path="url(#ah)"><g clip-path="url(#ai)"><g clip-path="url(#aj)"><path fill="#e5d3a6" d="M134.79 203.246a3.837 3.837 0 0 0 .96 4.066 3.844 3.844 0 0 0 5.422-.128 3.9 3.9 0 0 0 .836-1.356 3.832 3.832 0 0 0-7.219-2.582Zm0 0"/></g></g></g><g clip-path="url(#ak)"><g clip-path="url(#al)"><g clip-path="url(#am)"><path fill="#e5d3a6" d="M136.45 202.684a2.691 2.691 0 0 1 3.804-.094 2.69 2.69 0 1 1-3.805.094Zm0 0"/></g></g></g><g clip-path="url(#an)"><g clip-path="url(#ao)"><g clip-path="url(#ap)"><path fill="#3e303f" d="M142.785 209.207a5.852 5.852 0 0 1 7.871 2.55 5.853 5.853 0 0 1-2.55 7.872 5.853 5.853 0 0 1-7.872-2.55 5.846 5.846 0 0 1 2.551-7.872Zm4.613 8.36a3.386 3.386 0 1 0-4.559-1.477 3.386 3.386 0 0 0 4.56 1.476Zm0 0"/></g></g></g><g clip-path="url(#aq)"><g clip-path="url(#ar)"><g clip-path="url(#as)"><path fill="#3e303f" d="M145.691 204.898a4.473 4.473 0 0 1-.152-6.32 4.473 4.473 0 0 1 6.32-.152 4.476 4.476 0 0 1 .153 6.32 4.473 4.473 0 0 1-6.32.152Zm1.778-1.523a1.91 1.91 0 0 0 2.695-.066 1.906 1.906 0 1 0-2.695.066Zm0 0"/></g></g></g><g clip-path="url(#at)"><g clip-path="url(#au)"><g clip-path="url(#av)"><path fill="#3e303f" d="M133.563 209.605a2.106 2.106 0 0 1 2.98-.07c.844.8.875 2.137.07 2.98a2.106 2.106 0 0 1-2.98.07 2.106 2.106 0 0 1-.07-2.98Zm0 0"/></g></g></g><g clip-path="url(#aw)"><g clip-path="url(#ax)"><g clip-path="url(#ay)"><path fill="#3e303f" d="M140.344 206.395a2.69 2.69 0 1 1-3.895-3.714 2.69 2.69 0 0 1 3.895 3.714Zm0 0"/></g></g></g><path fill="#e5d3a6" d="M182.754 186.656v4.172c0 2.543-.621 4.496-1.86 5.86-1.242 1.367-3.074 2.046-5.5 2.046-2.43 0-4.265-.68-5.515-2.047-1.242-1.363-1.86-3.316-1.86-5.859v-16.36c0-2.538.618-4.491 1.86-5.859 1.25-1.363 3.086-2.047 5.516-2.047 2.425 0 4.257.684 5.5 2.047 1.238 1.368 1.859 3.32 1.859 5.86v3.062h-4.672v-3.375c0-1.133-.234-1.93-.703-2.39-.461-.47-1.078-.704-1.86-.704-.773 0-1.39.235-1.859.704-.469.46-.703 1.257-.703 2.39v16.985c0 1.136.234 1.933.703 2.39.469.45 1.086.672 1.86.672.78 0 1.398-.223 1.859-.672.469-.457.703-1.254.703-2.39v-4.485ZM201.764 198.375h-5l-.844-5.703h-6.062l-.86 5.703h-4.53l5.03-31.453h7.235Zm-11.281-9.969h4.766l-2.391-15.906ZM214.514 189.25l3.375-22.328h6.86v31.453h-4.672v-22.547l-3.406 22.547h-4.672l-3.688-22.234v22.234H204v-31.453h6.875ZM233.284 180.187h6.781v4.485h-6.781v9.203h8.547v4.5h-13.485v-31.453h13.485v4.5h-8.547ZM255.204 198.375a7.931 7.931 0 0 0-.172-.578 5.365 5.365 0 0 1-.172-.672 7.629 7.629 0 0 1-.078-1.031 60.102 60.102 0 0 1-.015-1.578v-4.954c0-1.457-.258-2.484-.766-3.078-.512-.601-1.336-.906-2.469-.906h-1.718v12.797h-4.938v-31.453h7.453c2.582 0 4.446.601 5.594 1.797 1.156 1.199 1.734 3.011 1.734 5.437v2.469c0 3.242-1.078 5.371-3.234 6.39 1.258.512 2.117 1.344 2.578 2.5.469 1.149.703 2.544.703 4.188v4.86c0 .773.024 1.449.078 2.03.063.587.211 1.18.453 1.782Zm-5.39-26.953v9.656h1.937c.926 0 1.649-.238 2.172-.719.531-.476.797-1.347.797-2.609v-3.094c0-1.133-.203-1.957-.61-2.469-.406-.507-1.043-.765-1.906-.765ZM278.933 198.375h-5l-.844-5.703h-6.062l-.86 5.703h-4.53l5.03-31.453h7.235Zm-11.281-9.969h4.765l-2.39-15.906ZM304.661 166.922l-5.156 15.281 5.516 16.172h-5.203l-4.047-12.438-4.094 12.438h-4.625l5.531-16.172-5.172-15.281h5.125l3.735 11.594 3.812-11.594ZM312.117 187.953l-6.235-21.031h5.156l3.782 14.344 3.765-14.344h4.72l-6.25 21.031v10.422h-4.938ZM338.982 166.922v4.406l-9.39 22.547h9.39v4.5h-14.469v-4.406l9.391-22.547h-8.937v-4.5ZM174.604 214.904v1.297c0 .793-.195 1.402-.578 1.828-.387.418-.953.625-1.703.625-.75 0-1.32-.207-1.703-.625-.387-.426-.579-1.035-.579-1.828v-5.063c0-.789.192-1.394.579-1.812.382-.426.953-.64 1.703-.64.75 0 1.316.214 1.703.64.383.418.578 1.023.578 1.812v.954h-1.453v-1.047c0-.352-.074-.602-.219-.75-.137-.145-.328-.219-.578-.219-.242 0-.434.074-.578.219-.137.148-.203.398-.203.75v5.265c0 .344.066.59.203.735.144.136.336.203.578.203.25 0 .441-.067.578-.203.145-.145.219-.39.219-.735v-1.406ZM180.493 218.545h-1.546l-.266-1.766h-1.875l-.266 1.766h-1.406l1.563-9.75h2.234Zm-3.5-3.094h1.485l-.75-4.922ZM183.457 208.795c.77 0 1.343.21 1.718.625.375.406.563 1 .563 1.781v1.281c0 .781-.188 1.383-.563 1.797-.375.406-.949.61-1.718.61h-.72v3.656h-1.53v-9.75Zm-.72 1.39v3.313h.72c.238 0 .421-.063.546-.188.133-.132.204-.379.204-.734v-1.469c0-.351-.07-.594-.204-.719-.125-.132-.308-.203-.546-.203ZM186.072 208.795h4.734v1.39h-1.594v8.36h-1.531v-8.36h-1.61ZM192.934 208.795v7.515c0 .356.07.606.219.75.144.137.336.203.578.203.238 0 .43-.066.578-.203.145-.144.219-.394.219-.75v-7.515h1.437v7.422c0 .793-.195 1.402-.578 1.828-.387.418-.953.625-1.703.625-.75 0-1.32-.207-1.703-.625-.387-.426-.578-1.035-.578-1.828v-7.422ZM200.225 218.545a11.126 11.126 0 0 1-.063-.172.827.827 0 0 1-.046-.219 3.988 3.988 0 0 1-.032-.312v-2.032c0-.445-.086-.765-.25-.953-.156-.187-.406-.281-.75-.281h-.53v3.969h-1.532v-9.75h2.312c.79 0 1.364.187 1.72.562.362.375.546.938.546 1.688v.765c0 1-.336 1.657-1 1.97.383.155.648.417.797.78.144.356.219.79.219 1.297v1.5c0 .242.004.453.015.64.02.18.067.36.14.548Zm-1.672-8.36v3h.594c.289 0 .515-.07.672-.218.164-.157.25-.426.25-.813v-.953c0-.352-.063-.61-.188-.766-.125-.164-.324-.25-.594-.25ZM204.15 212.904h2.093v1.39h-2.093v2.86h2.64v1.39h-4.172v-9.75h4.172v1.391h-2.64ZM209.446 208.795h4.735v1.39h-1.594v8.36h-1.531v-8.36h-1.61ZM216.387 218.545h-1.531v-9.75h1.531v4.187h1.734v-4.187h1.563v9.75h-1.563v-4.172h-1.734ZM222.332 212.904h2.093v1.39h-2.093v2.86h2.64v1.39H220.8v-9.75h4.172v1.391h-2.64ZM230.332 208.795c.77 0 1.343.21 1.718.625.375.406.563 1 .563 1.781v1.281c0 .781-.188 1.383-.563 1.797-.375.406-.949.61-1.718.61h-.72v3.656h-1.53v-9.75Zm-.72 1.39v3.313h.72c.238 0 .422-.063.547-.188.132-.132.203-.379.203-.734v-1.469c0-.351-.07-.594-.203-.719-.125-.132-.31-.203-.547-.203ZM238.353 218.545h-1.547l-.266-1.766h-1.875l-.265 1.766h-1.406l1.562-9.75h2.234Zm-3.5-3.094h1.484l-.75-4.922ZM238.863 211.138c0-.789.187-1.394.562-1.812.375-.426.942-.64 1.704-.64.75 0 1.312.214 1.687.64.375.418.563 1.023.563 1.812v.313h-1.454v-.406c0-.352-.07-.602-.203-.75-.136-.145-.324-.219-.562-.219-.242 0-.43.074-.563.219-.136.148-.203.398-.203.75 0 .336.07.633.219.89.156.25.344.493.562.72.22.218.454.444.704.671.257.23.5.48.718.75.227.273.414.578.563.922.156.344.234.746.234 1.203 0 .793-.195 1.402-.578 1.828-.387.418-.953.625-1.703.625-.762 0-1.336-.207-1.719-.625-.387-.426-.578-1.035-.578-1.828v-.594h1.453v.703c0 .344.07.59.219.735.144.136.336.203.578.203.238 0 .43-.067.578-.203.145-.145.219-.39.219-.735 0-.343-.078-.64-.234-.89a3.26 3.26 0 0 0-.563-.719c-.219-.227-.46-.457-.719-.688a6.432 6.432 0 0 1-.703-.75 4.319 4.319 0 0 1-.562-.906c-.149-.344-.22-.75-.22-1.219ZM243.82 208.795h4.734v1.39h-1.594v8.36h-1.53v-8.36h-1.61ZM249.229 218.545v-1.469h1.469v1.312l-.672 1.547h-.625l.406-1.39ZM258.414 214.904v1.297c0 .793-.195 1.402-.578 1.828-.387.418-.953.625-1.703.625-.75 0-1.32-.207-1.703-.625-.387-.426-.579-1.035-.579-1.828v-5.063c0-.789.192-1.394.579-1.812.382-.426.953-.64 1.703-.64.75 0 1.316.214 1.703.64.383.418.578 1.023.578 1.812v.954h-1.453v-1.047c0-.352-.074-.602-.219-.75-.137-.145-.328-.219-.578-.219-.242 0-.434.074-.578.219-.137.148-.203.398-.203.75v5.265c0 .344.066.59.203.735.144.136.336.203.578.203.25 0 .441-.067.578-.203.145-.145.219-.39.219-.735v-1.406ZM262.553 218.545a11.126 11.126 0 0 1-.062-.172.827.827 0 0 1-.047-.219 3.988 3.988 0 0 1-.031-.312v-2.032c0-.445-.086-.765-.25-.953-.156-.187-.406-.281-.75-.281h-.531v3.969h-1.532v-9.75h2.313c.789 0 1.363.187 1.719.562.363.375.546.938.546 1.688v.765c0 1-.336 1.657-1 1.97.383.155.649.417.797.78.145.356.219.79.219 1.297v1.5c0 .242.004.453.016.64.02.18.066.36.14.548Zm-1.671-8.36v3h.593c.29 0 .516-.07.672-.218.164-.157.25-.426.25-.813v-.953c0-.352-.062-.61-.187-.766-.125-.164-.325-.25-.594-.25ZM266.478 212.904h2.094v1.39h-2.094v2.86h2.64v1.39h-4.171v-9.75h4.172v1.391h-2.64ZM275.023 218.545h-1.547l-.265-1.766h-1.875l-.266 1.766h-1.406l1.562-9.75h2.235Zm-3.5-3.094h1.485l-.75-4.922ZM275.283 208.795h4.735v1.39h-1.594v8.36h-1.531v-8.36h-1.61ZM282.224 212.904h2.094v1.39h-2.094v2.86h2.64v1.39h-4.171v-9.75h4.171v1.391h-2.64ZM287.52 208.795h4.735v1.39h-1.594v8.36h-1.531v-8.36h-1.61ZM294.461 218.545h-1.531v-9.75h1.531v4.187h1.735v-4.187h1.562v9.75h-1.562v-4.172h-1.735ZM300.406 212.904h2.094v1.39h-2.094v2.86h2.64v1.39h-4.171v-9.75h4.171v1.391h-2.64ZM307.687 213.123h1.969v1.39h-1.969v4.032h-1.531v-9.75h4.047v1.39h-2.516ZM312.398 208.795v7.515c0 .356.07.606.219.75.144.137.336.203.578.203.238 0 .43-.066.578-.203.145-.144.219-.394.219-.75v-7.515h1.437v7.422c0 .793-.195 1.402-.578 1.828-.387.418-.953.625-1.703.625-.75 0-1.32-.207-1.703-.625-.387-.426-.578-1.035-.578-1.828v-7.422ZM316.033 208.795h4.734v1.39h-1.594v8.36h-1.53v-8.36h-1.61ZM322.895 208.795v7.515c0 .356.07.606.219.75.144.137.336.203.578.203.238 0 .43-.066.578-.203.145-.144.219-.394.219-.75v-7.515h1.437v7.422c0 .793-.195 1.402-.578 1.828-.386.418-.953.625-1.703.625-.75 0-1.32-.207-1.703-.625-.387-.426-.578-1.035-.578-1.828v-7.422ZM330.186 218.545a11.126 11.126 0 0 1-.062-.172.827.827 0 0 1-.047-.219 3.988 3.988 0 0 1-.032-.312v-2.032c0-.445-.085-.765-.25-.953-.156-.187-.406-.281-.75-.281h-.53v3.969h-1.532v-9.75h2.312c.79 0 1.364.187 1.72.562.362.375.546.938.546 1.688v.765c0 1-.336 1.657-1 1.97.383.155.649.417.797.78.144.356.219.79.219 1.297v1.5c0 .242.004.453.015.64.02.18.067.36.141.548Zm-1.672-8.36v3h.594c.289 0 .516-.07.672-.218.164-.157.25-.426.25-.813v-.953c0-.352-.063-.61-.188-.766-.125-.164-.324-.25-.593-.25ZM334.11 212.904h2.095v1.39h-2.094v2.86h2.64v1.39h-4.171v-9.75h4.171v1.391h-2.64Zm0 0"/></svg>